<?xml version="1.0" encoding="UTF-8" standalone="no"?>
<svg
   xmlns:dc="http://purl.org/dc/elements/1.1/"
   xmlns:cc="http://creativecommons.org/ns#"
   xmlns:rdf="http://www.w3.org/1999/02/22-rdf-syntax-ns#"
   xmlns:svg="http://www.w3.org/2000/svg"
   xmlns="http://www.w3.org/2000/svg"
   id="svg8"
   version="1.1"
   viewBox="0 0 320 120"
   height="120mm"
   width="320mm">
  <defs
     id="defs2" />
  <metadata
     id="metadata5">
    <rdf:RDF>
      <cc:Work
         rdf:about="">
        <dc:format>image/svg+xml</dc:format>
        <dc:type
           rdf:resource="http://purl.org/dc/dcmitype/StillImage" />
        <dc:title></dc:title>
      </cc:Work>
    </rdf:RDF>
  </metadata>
  <g
     id="layer1">
    <path
       id="path24"
       d="m 43.410566,111.67148 c -0.436562,-0.0608 -1.686719,-0.23683 -2.778125,-0.39118 -4.035539,-0.57071 -9.194213,-2.32994 -12.549397,-4.27964 C 16.998932,100.55967 9.8717472,88.952716 7.6498362,73.724256 c -0.266057,-1.8235 -0.452613,-5.73896 -0.542907,-11.39462 -0.178509,-11.18105 0.323816,-16.38688 2.232216,-23.13351 C 14.782971,19.950966 28.675118,8.8969687 47.410889,8.9023987 c 10.815931,0.003 20.271644,3.7397503 27.177917,10.7398973 6.95622,7.05076 11.20092,16.98623 12.64933,29.608 0.43766,3.81381 0.43351,18.92745 -0.006,22.48958 -1.96134,15.89021 -7.90831,27.07972 -17.972465,33.816034 -4.101256,2.74513 -9.280144,4.80118 -14.164363,5.62334 -2.339149,0.39375 -10.057188,0.71889 -11.684585,0.49223 z m 7.163943,-11.25008 c 13.493242,-1.355584 21.759827,-11.664534 23.529667,-29.342984 0.45361,-4.531 0.52384,-16.81807 0.11765,-20.58178 -1.61745,-14.98686 -6.970307,-24.18274 -16.473926,-28.30118 -6.12063,-2.6524 -14.722747,-2.62917 -20.830513,0.0563 -8.282573,3.64164 -13.764427,11.81627 -15.887227,23.69129 -1.230183,6.88171 -1.229783,21.743 7.94e-4,28.7073 1.479865,8.37526 4.28117,14.28325 9.07783,19.14525 4.355024,4.41435 9.362925,6.467444 16.76158,6.871734 0.447669,0.0245 2.114544,-0.0862 3.704166,-0.24588 z m 84.381901,11.24424 c -0.43657,-0.0602 -1.74625,-0.23594 -2.91042,-0.39056 -9.80827,-1.30271 -19.68911,-6.40916 -24.67437,-12.751794 -3.59315,-4.5715 -5.87121,-10.56436 -5.88153,-15.47247 l -0.003,-1.65365 h 6.61458 6.61458 v 1.14203 c 0,7.39089 5.28416,14.03045 13.36146,16.78873 3.03043,1.034854 5.49541,1.423104 9.96827,1.570084 6.51879,0.21421 10.4297,-0.47527 14.77027,-2.603964 2.46922,-1.21095 5.3459,-3.81618 6.31816,-5.72196 2.31947,-4.54655 2.32659,-10.381 0.0182,-14.90586 -0.85309,-1.67221 -3.24364,-4.00253 -5.44578,-5.30857 -3.80934,-2.25925 -7.36148,-3.65824 -16.9787,-6.687 -3.48589,-1.09781 -7.65335,-2.52465 -9.261,-3.17076 -13.19197,-5.30176 -19.88771,-11.46212 -22.16568,-20.39335 -0.61288,-2.40293 -0.66446,-3.0102 -0.56177,-6.61459 0.1291,-4.53122 0.65472,-6.91016 2.20845,-9.99547 1.32284,-2.62681 2.08161,-3.75255 3.99608,-5.92873 4.96814,-5.647277 12.93501,-9.409427 22.05949,-10.4170273 3.9622,-0.43754 11.15605,-0.17721 14.63714,0.52969 12.45271,2.5287603 21.943,10.5346573 25.10859,21.1813373 0.71807,2.41505 1.23352,5.39373 1.23352,7.12828 v 1.0738 h -6.56237 -6.56236 l -0.32972,-2.64195 c -0.34971,-2.80217 -0.83738,-4.48186 -2.04136,-7.03111 -0.90509,-1.91639 -4.33188,-5.4457 -6.46461,-6.65801 -2.34291,-1.33179 -5.68257,-2.41184 -8.78054,-2.83966 -1.98968,-0.27476 -7.92545,-0.19747 -9.90462,0.12898 -8.43034,1.3905 -13.66917,5.65432 -15.02757,12.23075 -0.78243,3.78802 -0.41344,6.71244 1.23789,9.81064 2.67813,5.02469 8.55766,8.218 23.47901,12.752 6.21206,1.8876 9.09975,2.96268 13.21172,4.91869 7.25184,3.44961 12.00116,7.53477 15.05916,12.95326 3.00864,5.33101 3.72986,13.50331 1.76966,20.05231 -2.15318,7.19373 -8.11774,13.007434 -16.81137,16.386204 -1.75833,0.68337 -4.85189,1.47428 -8.0698,2.06315 -2.26698,0.41486 -11.3131,0.74072 -13.22916,0.47655 z m 155.45498,-1.6405 c -0.44331,-0.44331 -0.80602,-0.98817 -0.80602,-1.2108 0,-1.94664 2.4816,-2.99921 3.84849,-1.63233 1.27596,1.27598 0.58457,3.19755 -1.25653,3.49229 -0.8472,0.13562 -1.08908,0.0477 -1.78594,-0.64916 z m 12.02627,0.49337 c -1.99028,-0.48453 -3.20662,-1.53635 -4.15428,-3.59235 -0.56867,-1.23381 -0.60822,-1.65513 -0.60822,-6.47899 0,-4.823864 0.0396,-5.245194 0.60822,-6.478994 1.06392,-2.30825 2.52735,-3.39378 5.02126,-3.72461 3.28436,-0.43568 6.15688,1.38841 7.11026,4.51506 0.68659,2.25172 0.69289,9.109844 0.0103,11.331284 -1.07519,3.49967 -4.34856,5.31454 -7.98767,4.4286 z m 3.43323,-3.55864 c 1.01314,-1.01314 1.24963,-2.48031 1.15284,-7.151914 -0.0769,-3.7139 -0.15716,-4.37345 -0.63034,-5.18162 -1.06286,-1.8154 -3.57979,-1.69166 -4.53247,0.22285 -0.41053,0.82495 -0.4816,1.65112 -0.4816,5.597984 0,3.93047 0.0721,4.77497 0.47694,5.58816 0.81021,1.62741 2.84351,2.09566 4.01463,0.92454 z M 191.18037,60.362796 V 10.224259 l 18.32239,0.002 c 20.25286,0.003 22.78492,0.1432 28.31931,1.57019 7.43554,1.91717 12.47964,5.092617 16.42364,10.339297 5.02422,6.68369 6.66922,18.14444 3.89175,27.114 -2.15794,6.9688 -7.2675,12.72316 -14.49073,16.31933 l -3.2485,1.61731 0.76473,1.35043 c 4.80924,8.49266 22.77782,41.296914 22.77782,41.584214 0,0.32056 -1.10342,0.37939 -7.0776,0.37738 l -7.07761,-0.002 -10.94427,-20.370534 -10.94428,-20.37053 h -11.74374 -11.74375 v 20.37291 20.372914 h -6.61458 -6.61458 z m 39.5552,-1.80365 c 4.65832,-1.03197 7.45904,-2.47815 10.34093,-5.33963 3.82879,-3.80168 5.33137,-7.96384 5.06257,-14.02339 -0.3377,-7.6125 -3.42392,-12.83633 -9.27234,-15.69462 -4.47648,-2.18778 -6.53654,-2.42934 -20.7179,-2.42934 h -11.7393 v 19.07446 19.07446 l 12.23698,-0.12582 c 9.72249,-0.1 12.61755,-0.21014 14.08906,-0.53612 z m 48.02188,44.269274 c 0,-4.220104 -0.0893,-7.671134 -0.19844,-7.668944 -0.10914,0.002 -1.15094,0.29982 -2.3151,0.66142 -1.16417,0.3616 -2.14643,0.65747 -2.18282,0.65749 -0.0364,2e-5 -0.0661,-0.70135 -0.0661,-1.55859 v -1.55862 l 3.77031,-1.31732 c 2.07367,-0.72452 4.0382,-1.40038 4.36563,-1.50191 l 0.59531,-0.1846 v 10.071994 10.07199 h -1.98438 -1.98437 z"
       style="fill:#000000;stroke-width:0.264583" />
  </g>
</svg>
