G04 #@! TF.GenerationSoftware,KiCad,Pcbnew,(5.1.6)-1*
G04 #@! TF.CreationDate,2022-01-23T19:06:20-05:00*
G04 #@! TF.ProjectId,KiCad Schematic,4b694361-6420-4536-9368-656d61746963,rev?*
G04 #@! TF.SameCoordinates,Original*
G04 #@! TF.FileFunction,Legend,Bot*
G04 #@! TF.FilePolarity,Positive*
%FSLAX46Y46*%
G04 Gerber Fmt 4.6, Leading zero omitted, Abs format (unit mm)*
G04 Created by KiCad (PCBNEW (5.1.6)-1) date 2022-01-23 19:06:20*
%MOMM*%
%LPD*%
G01*
G04 APERTURE LIST*
%ADD10C,1.000000*%
%ADD11C,0.010000*%
G04 APERTURE END LIST*
D10*
X117735714Y-174316517D02*
X113235714Y-174879017D01*
X113235714Y-176593303D01*
X113450000Y-176995089D01*
X113664285Y-177182589D01*
X114092857Y-177343303D01*
X114735714Y-177262946D01*
X115164285Y-176995089D01*
X115378571Y-176754017D01*
X115592857Y-176298660D01*
X115592857Y-174584375D01*
X117735714Y-181387946D02*
X115592857Y-180155803D01*
X117735714Y-178816517D02*
X113235714Y-179379017D01*
X113235714Y-181093303D01*
X113450000Y-181495089D01*
X113664285Y-181682589D01*
X114092857Y-181843303D01*
X114735714Y-181762946D01*
X115164285Y-181495089D01*
X115378571Y-181254017D01*
X115592857Y-180798660D01*
X115592857Y-179084375D01*
X117735714Y-183316517D02*
X113235714Y-183879017D01*
X117735714Y-185459375D02*
X113235714Y-186021875D01*
X116450000Y-187120089D01*
X113235714Y-189021875D01*
X117735714Y-188459375D01*
X115378571Y-190896875D02*
X115378571Y-192396875D01*
X117735714Y-192745089D02*
X117735714Y-190602232D01*
X113235714Y-191164732D01*
X113235714Y-193307589D01*
D11*
G36*
X100008649Y-137703153D02*
G01*
X100145240Y-138556705D01*
X100398170Y-139394271D01*
X100766428Y-140207551D01*
X101249001Y-140988245D01*
X101844875Y-141728053D01*
X102150621Y-142046311D01*
X102923064Y-142720284D01*
X103785325Y-143308250D01*
X104730392Y-143806380D01*
X105751252Y-144210844D01*
X106544142Y-144445742D01*
X107207046Y-144580902D01*
X107951822Y-144672708D01*
X108741353Y-144720381D01*
X109538523Y-144723140D01*
X110306218Y-144680205D01*
X111007321Y-144590795D01*
X111247750Y-144544644D01*
X112311998Y-144263515D01*
X113311934Y-143890220D01*
X114240496Y-143429826D01*
X115090620Y-142887401D01*
X115855245Y-142268011D01*
X116527309Y-141576725D01*
X117099750Y-140818608D01*
X117555957Y-140018421D01*
X117842215Y-139360325D01*
X118042019Y-138726051D01*
X118170756Y-138063545D01*
X118198645Y-137844250D01*
X118234348Y-137497755D01*
X118251124Y-137220122D01*
X118248803Y-136960866D01*
X118227213Y-136669507D01*
X118193599Y-136359037D01*
X118031583Y-135500884D01*
X117753087Y-134675179D01*
X117365924Y-133888280D01*
X116877904Y-133146546D01*
X116296841Y-132456334D01*
X115630545Y-131824003D01*
X114886829Y-131255912D01*
X114073505Y-130758419D01*
X113198384Y-130337883D01*
X112269278Y-130000661D01*
X111293999Y-129753112D01*
X110280359Y-129601595D01*
X109850750Y-129568441D01*
X109131572Y-129561921D01*
X109131572Y-132595681D01*
X109639012Y-132604411D01*
X110092236Y-132634910D01*
X110327000Y-132664996D01*
X111197404Y-132854902D01*
X112004213Y-133129167D01*
X112739505Y-133481751D01*
X113395358Y-133906610D01*
X113963848Y-134397703D01*
X114437055Y-134948989D01*
X114807054Y-135554425D01*
X115065925Y-136207970D01*
X115091714Y-136298770D01*
X115183649Y-136852437D01*
X115178062Y-137445041D01*
X115076258Y-138035751D01*
X115031235Y-138193500D01*
X114770742Y-138818042D01*
X114396292Y-139401020D01*
X113916009Y-139935879D01*
X113338015Y-140416067D01*
X112670431Y-140835029D01*
X111921382Y-141186212D01*
X111098988Y-141463062D01*
X110920084Y-141510546D01*
X110706990Y-141560978D01*
X110506564Y-141597941D01*
X110293322Y-141623369D01*
X110041780Y-141639194D01*
X109726456Y-141647350D01*
X109321865Y-141649769D01*
X109088750Y-141649461D01*
X108640989Y-141646974D01*
X108294438Y-141640742D01*
X108023313Y-141628468D01*
X107801832Y-141607851D01*
X107604211Y-141576592D01*
X107404667Y-141532393D01*
X107210815Y-141481996D01*
X106359836Y-141204606D01*
X105593730Y-140856975D01*
X104917623Y-140444238D01*
X104336643Y-139971532D01*
X103855917Y-139443990D01*
X103480572Y-138866750D01*
X103215735Y-138244946D01*
X103066534Y-137583714D01*
X103040098Y-137304500D01*
X103064607Y-136665248D01*
X103207955Y-136045734D01*
X103462576Y-135453409D01*
X103820903Y-134895723D01*
X104275372Y-134380127D01*
X104818415Y-133914072D01*
X105442468Y-133505009D01*
X106139964Y-133160390D01*
X106903337Y-132887664D01*
X107720638Y-132695066D01*
X108128717Y-132641512D01*
X108613584Y-132608216D01*
X109131572Y-132595681D01*
X109131572Y-129561921D01*
X108710919Y-129558106D01*
X107604087Y-129653962D01*
X106538313Y-129852395D01*
X105521659Y-130149796D01*
X104562185Y-130542553D01*
X103667951Y-131027054D01*
X102847019Y-131599689D01*
X102107449Y-132256845D01*
X101457301Y-132994913D01*
X101106236Y-133486104D01*
X100645938Y-134295086D01*
X100307043Y-135129581D01*
X100088538Y-135981291D01*
X99989411Y-136841915D01*
X100008649Y-137703153D01*
G37*
X100008649Y-137703153D02*
X100145240Y-138556705D01*
X100398170Y-139394271D01*
X100766428Y-140207551D01*
X101249001Y-140988245D01*
X101844875Y-141728053D01*
X102150621Y-142046311D01*
X102923064Y-142720284D01*
X103785325Y-143308250D01*
X104730392Y-143806380D01*
X105751252Y-144210844D01*
X106544142Y-144445742D01*
X107207046Y-144580902D01*
X107951822Y-144672708D01*
X108741353Y-144720381D01*
X109538523Y-144723140D01*
X110306218Y-144680205D01*
X111007321Y-144590795D01*
X111247750Y-144544644D01*
X112311998Y-144263515D01*
X113311934Y-143890220D01*
X114240496Y-143429826D01*
X115090620Y-142887401D01*
X115855245Y-142268011D01*
X116527309Y-141576725D01*
X117099750Y-140818608D01*
X117555957Y-140018421D01*
X117842215Y-139360325D01*
X118042019Y-138726051D01*
X118170756Y-138063545D01*
X118198645Y-137844250D01*
X118234348Y-137497755D01*
X118251124Y-137220122D01*
X118248803Y-136960866D01*
X118227213Y-136669507D01*
X118193599Y-136359037D01*
X118031583Y-135500884D01*
X117753087Y-134675179D01*
X117365924Y-133888280D01*
X116877904Y-133146546D01*
X116296841Y-132456334D01*
X115630545Y-131824003D01*
X114886829Y-131255912D01*
X114073505Y-130758419D01*
X113198384Y-130337883D01*
X112269278Y-130000661D01*
X111293999Y-129753112D01*
X110280359Y-129601595D01*
X109850750Y-129568441D01*
X109131572Y-129561921D01*
X109131572Y-132595681D01*
X109639012Y-132604411D01*
X110092236Y-132634910D01*
X110327000Y-132664996D01*
X111197404Y-132854902D01*
X112004213Y-133129167D01*
X112739505Y-133481751D01*
X113395358Y-133906610D01*
X113963848Y-134397703D01*
X114437055Y-134948989D01*
X114807054Y-135554425D01*
X115065925Y-136207970D01*
X115091714Y-136298770D01*
X115183649Y-136852437D01*
X115178062Y-137445041D01*
X115076258Y-138035751D01*
X115031235Y-138193500D01*
X114770742Y-138818042D01*
X114396292Y-139401020D01*
X113916009Y-139935879D01*
X113338015Y-140416067D01*
X112670431Y-140835029D01*
X111921382Y-141186212D01*
X111098988Y-141463062D01*
X110920084Y-141510546D01*
X110706990Y-141560978D01*
X110506564Y-141597941D01*
X110293322Y-141623369D01*
X110041780Y-141639194D01*
X109726456Y-141647350D01*
X109321865Y-141649769D01*
X109088750Y-141649461D01*
X108640989Y-141646974D01*
X108294438Y-141640742D01*
X108023313Y-141628468D01*
X107801832Y-141607851D01*
X107604211Y-141576592D01*
X107404667Y-141532393D01*
X107210815Y-141481996D01*
X106359836Y-141204606D01*
X105593730Y-140856975D01*
X104917623Y-140444238D01*
X104336643Y-139971532D01*
X103855917Y-139443990D01*
X103480572Y-138866750D01*
X103215735Y-138244946D01*
X103066534Y-137583714D01*
X103040098Y-137304500D01*
X103064607Y-136665248D01*
X103207955Y-136045734D01*
X103462576Y-135453409D01*
X103820903Y-134895723D01*
X104275372Y-134380127D01*
X104818415Y-133914072D01*
X105442468Y-133505009D01*
X106139964Y-133160390D01*
X106903337Y-132887664D01*
X107720638Y-132695066D01*
X108128717Y-132641512D01*
X108613584Y-132608216D01*
X109131572Y-132595681D01*
X109131572Y-129561921D01*
X108710919Y-129558106D01*
X107604087Y-129653962D01*
X106538313Y-129852395D01*
X105521659Y-130149796D01*
X104562185Y-130542553D01*
X103667951Y-131027054D01*
X102847019Y-131599689D01*
X102107449Y-132256845D01*
X101457301Y-132994913D01*
X101106236Y-133486104D01*
X100645938Y-134295086D01*
X100307043Y-135129581D01*
X100088538Y-135981291D01*
X99989411Y-136841915D01*
X100008649Y-137703153D01*
G36*
X118264500Y-163530000D02*
G01*
X118264500Y-160482000D01*
X99976500Y-160482000D01*
X99976500Y-163530000D01*
X118264500Y-163530000D01*
G37*
X118264500Y-163530000D02*
X118264500Y-160482000D01*
X99976500Y-160482000D01*
X99976500Y-163530000D01*
X118264500Y-163530000D01*
G36*
X114517763Y-168832048D02*
G01*
X118264500Y-172578346D01*
X118264500Y-168265819D01*
X115057750Y-165052187D01*
X112914388Y-165068968D01*
X110771027Y-165085750D01*
X114517763Y-168832048D01*
G37*
X114517763Y-168832048D02*
X118264500Y-172578346D01*
X118264500Y-168265819D01*
X115057750Y-165052187D01*
X112914388Y-165068968D01*
X110771027Y-165085750D01*
X114517763Y-168832048D01*
G36*
X107675008Y-154508793D02*
G01*
X107714659Y-154692619D01*
X107770888Y-154925249D01*
X107780548Y-154963217D01*
X108038580Y-155724730D01*
X108400955Y-156423469D01*
X108857475Y-157051519D01*
X109397945Y-157600968D01*
X110012167Y-158063901D01*
X110689945Y-158432405D01*
X111421082Y-158698567D01*
X112195382Y-158854472D01*
X112846069Y-158894500D01*
X113188759Y-158884475D01*
X113545445Y-158857664D01*
X113858554Y-158818955D01*
X113969329Y-158799076D01*
X114738236Y-158577301D01*
X115454636Y-158245575D01*
X116108499Y-157813634D01*
X116689790Y-157291214D01*
X117188476Y-156688051D01*
X117594525Y-156013882D01*
X117897904Y-155278443D01*
X118011381Y-154876593D01*
X118037987Y-154759243D01*
X118060551Y-154639531D01*
X118079406Y-154506357D01*
X118094883Y-154348622D01*
X118107316Y-154155226D01*
X118117036Y-153915070D01*
X118124377Y-153617053D01*
X118129671Y-153250077D01*
X118133250Y-152803041D01*
X118135446Y-152264846D01*
X118136593Y-151624391D01*
X118137022Y-150870578D01*
X118137055Y-150680889D01*
X118137500Y-147007528D01*
X117957993Y-147124889D01*
X117857233Y-147193124D01*
X117668988Y-147322830D01*
X117409747Y-147502557D01*
X117096003Y-147720853D01*
X116744247Y-147966269D01*
X116465743Y-148161004D01*
X115153000Y-149079758D01*
X115153000Y-151499103D01*
X115152292Y-152174482D01*
X115149058Y-152736476D01*
X115141627Y-153198694D01*
X115128330Y-153574750D01*
X115107499Y-153878253D01*
X115077463Y-154122816D01*
X115036553Y-154322048D01*
X114983101Y-154489563D01*
X114915437Y-154638971D01*
X114831892Y-154783882D01*
X114731382Y-154937045D01*
X114401572Y-155321468D01*
X114011975Y-155606184D01*
X113579519Y-155792697D01*
X113121131Y-155882510D01*
X112653741Y-155877127D01*
X112194277Y-155778051D01*
X111759668Y-155586787D01*
X111366841Y-155304839D01*
X111032725Y-154933709D01*
X110827156Y-154590238D01*
X110768076Y-154456171D01*
X110725815Y-154316704D01*
X110696743Y-154145519D01*
X110677229Y-153916301D01*
X110663642Y-153602733D01*
X110656594Y-153354125D01*
X110643888Y-153007463D01*
X110625779Y-152724325D01*
X110603984Y-152523724D01*
X110580219Y-152424668D01*
X110572022Y-152417500D01*
X110495264Y-152434315D01*
X110375269Y-152489040D01*
X110201795Y-152588090D01*
X109964604Y-152737882D01*
X109653456Y-152944833D01*
X109258110Y-153215358D01*
X108882375Y-153476253D01*
X108536883Y-153720562D01*
X108229247Y-153944528D01*
X107974011Y-154137031D01*
X107785720Y-154286952D01*
X107678919Y-154383172D01*
X107660000Y-154410728D01*
X107675008Y-154508793D01*
G37*
X107675008Y-154508793D02*
X107714659Y-154692619D01*
X107770888Y-154925249D01*
X107780548Y-154963217D01*
X108038580Y-155724730D01*
X108400955Y-156423469D01*
X108857475Y-157051519D01*
X109397945Y-157600968D01*
X110012167Y-158063901D01*
X110689945Y-158432405D01*
X111421082Y-158698567D01*
X112195382Y-158854472D01*
X112846069Y-158894500D01*
X113188759Y-158884475D01*
X113545445Y-158857664D01*
X113858554Y-158818955D01*
X113969329Y-158799076D01*
X114738236Y-158577301D01*
X115454636Y-158245575D01*
X116108499Y-157813634D01*
X116689790Y-157291214D01*
X117188476Y-156688051D01*
X117594525Y-156013882D01*
X117897904Y-155278443D01*
X118011381Y-154876593D01*
X118037987Y-154759243D01*
X118060551Y-154639531D01*
X118079406Y-154506357D01*
X118094883Y-154348622D01*
X118107316Y-154155226D01*
X118117036Y-153915070D01*
X118124377Y-153617053D01*
X118129671Y-153250077D01*
X118133250Y-152803041D01*
X118135446Y-152264846D01*
X118136593Y-151624391D01*
X118137022Y-150870578D01*
X118137055Y-150680889D01*
X118137500Y-147007528D01*
X117957993Y-147124889D01*
X117857233Y-147193124D01*
X117668988Y-147322830D01*
X117409747Y-147502557D01*
X117096003Y-147720853D01*
X116744247Y-147966269D01*
X116465743Y-148161004D01*
X115153000Y-149079758D01*
X115153000Y-151499103D01*
X115152292Y-152174482D01*
X115149058Y-152736476D01*
X115141627Y-153198694D01*
X115128330Y-153574750D01*
X115107499Y-153878253D01*
X115077463Y-154122816D01*
X115036553Y-154322048D01*
X114983101Y-154489563D01*
X114915437Y-154638971D01*
X114831892Y-154783882D01*
X114731382Y-154937045D01*
X114401572Y-155321468D01*
X114011975Y-155606184D01*
X113579519Y-155792697D01*
X113121131Y-155882510D01*
X112653741Y-155877127D01*
X112194277Y-155778051D01*
X111759668Y-155586787D01*
X111366841Y-155304839D01*
X111032725Y-154933709D01*
X110827156Y-154590238D01*
X110768076Y-154456171D01*
X110725815Y-154316704D01*
X110696743Y-154145519D01*
X110677229Y-153916301D01*
X110663642Y-153602733D01*
X110656594Y-153354125D01*
X110643888Y-153007463D01*
X110625779Y-152724325D01*
X110603984Y-152523724D01*
X110580219Y-152424668D01*
X110572022Y-152417500D01*
X110495264Y-152434315D01*
X110375269Y-152489040D01*
X110201795Y-152588090D01*
X109964604Y-152737882D01*
X109653456Y-152944833D01*
X109258110Y-153215358D01*
X108882375Y-153476253D01*
X108536883Y-153720562D01*
X108229247Y-153944528D01*
X107974011Y-154137031D01*
X107785720Y-154286952D01*
X107678919Y-154383172D01*
X107660000Y-154410728D01*
X107675008Y-154508793D01*
G36*
X100056532Y-157028903D02*
G01*
X100060383Y-157365218D01*
X100066505Y-157602461D01*
X100074872Y-157729720D01*
X100080506Y-157748880D01*
X100144683Y-157712954D01*
X100298682Y-157612808D01*
X100528797Y-157457781D01*
X100821319Y-157257210D01*
X101162542Y-157020433D01*
X101538758Y-156756788D01*
X101595750Y-156716637D01*
X103056250Y-155687015D01*
X103088000Y-153337882D01*
X103119750Y-150988750D01*
X103296362Y-150629107D01*
X103577646Y-150184197D01*
X103927197Y-149833908D01*
X104328839Y-149578000D01*
X104766397Y-149416233D01*
X105223695Y-149348369D01*
X105684559Y-149374167D01*
X106132812Y-149493387D01*
X106552280Y-149705791D01*
X106926787Y-150011138D01*
X107240158Y-150409189D01*
X107390898Y-150689773D01*
X107469612Y-150884154D01*
X107523642Y-151084034D01*
X107559804Y-151326081D01*
X107584914Y-151646963D01*
X107591584Y-151769447D01*
X107628250Y-152490855D01*
X109025250Y-151512588D01*
X109510824Y-151168210D01*
X109896308Y-150885320D01*
X110179879Y-150665342D01*
X110359714Y-150509697D01*
X110433988Y-150419808D01*
X110435891Y-150412285D01*
X110424297Y-150286412D01*
X110379999Y-150091501D01*
X110335306Y-149941000D01*
X110032220Y-149214245D01*
X109622139Y-148544158D01*
X109116404Y-147941303D01*
X108526357Y-147416246D01*
X107863339Y-146979551D01*
X107138692Y-146641783D01*
X106612250Y-146472868D01*
X106206771Y-146397350D01*
X105722273Y-146356542D01*
X105201779Y-146350022D01*
X104688314Y-146377368D01*
X104224902Y-146438158D01*
X103958490Y-146498905D01*
X103192526Y-146779792D01*
X102488772Y-147163086D01*
X101856675Y-147639238D01*
X101305681Y-148198696D01*
X100845239Y-148831912D01*
X100484794Y-149529334D01*
X100239552Y-150258500D01*
X100212979Y-150372828D01*
X100190163Y-150497825D01*
X100170633Y-150644724D01*
X100153917Y-150824759D01*
X100139542Y-151049166D01*
X100127039Y-151329178D01*
X100115933Y-151676029D01*
X100105755Y-152100955D01*
X100096031Y-152615188D01*
X100086291Y-153229964D01*
X100076063Y-153956517D01*
X100072230Y-154243125D01*
X100064343Y-154911138D01*
X100058856Y-155534634D01*
X100055742Y-156102700D01*
X100054976Y-156604427D01*
X100056532Y-157028903D01*
G37*
X100056532Y-157028903D02*
X100060383Y-157365218D01*
X100066505Y-157602461D01*
X100074872Y-157729720D01*
X100080506Y-157748880D01*
X100144683Y-157712954D01*
X100298682Y-157612808D01*
X100528797Y-157457781D01*
X100821319Y-157257210D01*
X101162542Y-157020433D01*
X101538758Y-156756788D01*
X101595750Y-156716637D01*
X103056250Y-155687015D01*
X103088000Y-153337882D01*
X103119750Y-150988750D01*
X103296362Y-150629107D01*
X103577646Y-150184197D01*
X103927197Y-149833908D01*
X104328839Y-149578000D01*
X104766397Y-149416233D01*
X105223695Y-149348369D01*
X105684559Y-149374167D01*
X106132812Y-149493387D01*
X106552280Y-149705791D01*
X106926787Y-150011138D01*
X107240158Y-150409189D01*
X107390898Y-150689773D01*
X107469612Y-150884154D01*
X107523642Y-151084034D01*
X107559804Y-151326081D01*
X107584914Y-151646963D01*
X107591584Y-151769447D01*
X107628250Y-152490855D01*
X109025250Y-151512588D01*
X109510824Y-151168210D01*
X109896308Y-150885320D01*
X110179879Y-150665342D01*
X110359714Y-150509697D01*
X110433988Y-150419808D01*
X110435891Y-150412285D01*
X110424297Y-150286412D01*
X110379999Y-150091501D01*
X110335306Y-149941000D01*
X110032220Y-149214245D01*
X109622139Y-148544158D01*
X109116404Y-147941303D01*
X108526357Y-147416246D01*
X107863339Y-146979551D01*
X107138692Y-146641783D01*
X106612250Y-146472868D01*
X106206771Y-146397350D01*
X105722273Y-146356542D01*
X105201779Y-146350022D01*
X104688314Y-146377368D01*
X104224902Y-146438158D01*
X103958490Y-146498905D01*
X103192526Y-146779792D01*
X102488772Y-147163086D01*
X101856675Y-147639238D01*
X101305681Y-148198696D01*
X100845239Y-148831912D01*
X100484794Y-149529334D01*
X100239552Y-150258500D01*
X100212979Y-150372828D01*
X100190163Y-150497825D01*
X100170633Y-150644724D01*
X100153917Y-150824759D01*
X100139542Y-151049166D01*
X100127039Y-151329178D01*
X100115933Y-151676029D01*
X100105755Y-152100955D01*
X100096031Y-152615188D01*
X100086291Y-153229964D01*
X100076063Y-153956517D01*
X100072230Y-154243125D01*
X100064343Y-154911138D01*
X100058856Y-155534634D01*
X100055742Y-156102700D01*
X100054976Y-156604427D01*
X100056532Y-157028903D01*
G36*
X100117221Y-167006625D02*
G01*
X100124167Y-167558291D01*
X100131172Y-167999645D01*
X100139515Y-168347365D01*
X100150474Y-168618133D01*
X100165326Y-168828628D01*
X100185351Y-168995532D01*
X100211826Y-169135524D01*
X100246030Y-169265286D01*
X100289240Y-169401498D01*
X100304140Y-169446082D01*
X100608827Y-170164363D01*
X101014063Y-170812456D01*
X101512436Y-171380619D01*
X102096534Y-171859109D01*
X102185838Y-171919116D01*
X102835710Y-172273314D01*
X103513494Y-172511004D01*
X104206609Y-172636026D01*
X104902475Y-172652220D01*
X105588512Y-172563428D01*
X106252140Y-172373490D01*
X106880778Y-172086246D01*
X107461846Y-171705538D01*
X107982763Y-171235205D01*
X108430950Y-170679088D01*
X108793825Y-170041028D01*
X108865197Y-169880000D01*
X108956394Y-169658026D01*
X109029567Y-169460221D01*
X109086966Y-169268689D01*
X109130842Y-169065535D01*
X109163444Y-168832863D01*
X109187023Y-168552777D01*
X109203828Y-168207382D01*
X109216110Y-167778782D01*
X109226117Y-167249081D01*
X109230449Y-166974875D01*
X109259913Y-165054000D01*
X106206964Y-165054000D01*
X106187357Y-166784375D01*
X106180680Y-167307117D01*
X106173127Y-167718713D01*
X106163578Y-168035016D01*
X106150913Y-168271880D01*
X106134012Y-168445158D01*
X106111754Y-168570702D01*
X106083020Y-168664368D01*
X106049375Y-168737000D01*
X105790128Y-169104185D01*
X105462337Y-169378567D01*
X105084601Y-169551652D01*
X104675518Y-169614947D01*
X104253686Y-169559956D01*
X104249776Y-169558867D01*
X103982736Y-169438411D01*
X103711073Y-169240514D01*
X103468707Y-168997527D01*
X103289562Y-168741798D01*
X103221469Y-168578250D01*
X103199618Y-168431436D01*
X103181222Y-168172468D01*
X103166825Y-167816155D01*
X103156974Y-167377310D01*
X103152214Y-166870743D01*
X103151854Y-166689125D01*
X103151500Y-165054000D01*
X100093812Y-165054000D01*
X100117221Y-167006625D01*
G37*
X100117221Y-167006625D02*
X100124167Y-167558291D01*
X100131172Y-167999645D01*
X100139515Y-168347365D01*
X100150474Y-168618133D01*
X100165326Y-168828628D01*
X100185351Y-168995532D01*
X100211826Y-169135524D01*
X100246030Y-169265286D01*
X100289240Y-169401498D01*
X100304140Y-169446082D01*
X100608827Y-170164363D01*
X101014063Y-170812456D01*
X101512436Y-171380619D01*
X102096534Y-171859109D01*
X102185838Y-171919116D01*
X102835710Y-172273314D01*
X103513494Y-172511004D01*
X104206609Y-172636026D01*
X104902475Y-172652220D01*
X105588512Y-172563428D01*
X106252140Y-172373490D01*
X106880778Y-172086246D01*
X107461846Y-171705538D01*
X107982763Y-171235205D01*
X108430950Y-170679088D01*
X108793825Y-170041028D01*
X108865197Y-169880000D01*
X108956394Y-169658026D01*
X109029567Y-169460221D01*
X109086966Y-169268689D01*
X109130842Y-169065535D01*
X109163444Y-168832863D01*
X109187023Y-168552777D01*
X109203828Y-168207382D01*
X109216110Y-167778782D01*
X109226117Y-167249081D01*
X109230449Y-166974875D01*
X109259913Y-165054000D01*
X106206964Y-165054000D01*
X106187357Y-166784375D01*
X106180680Y-167307117D01*
X106173127Y-167718713D01*
X106163578Y-168035016D01*
X106150913Y-168271880D01*
X106134012Y-168445158D01*
X106111754Y-168570702D01*
X106083020Y-168664368D01*
X106049375Y-168737000D01*
X105790128Y-169104185D01*
X105462337Y-169378567D01*
X105084601Y-169551652D01*
X104675518Y-169614947D01*
X104253686Y-169559956D01*
X104249776Y-169558867D01*
X103982736Y-169438411D01*
X103711073Y-169240514D01*
X103468707Y-168997527D01*
X103289562Y-168741798D01*
X103221469Y-168578250D01*
X103199618Y-168431436D01*
X103181222Y-168172468D01*
X103166825Y-167816155D01*
X103156974Y-167377310D01*
X103152214Y-166870743D01*
X103151854Y-166689125D01*
X103151500Y-165054000D01*
X100093812Y-165054000D01*
X100117221Y-167006625D01*
M02*
