G04 #@! TF.GenerationSoftware,KiCad,Pcbnew,(5.1.6)-1*
G04 #@! TF.CreationDate,2022-01-23T19:06:20-05:00*
G04 #@! TF.ProjectId,KiCad Schematic,4b694361-6420-4536-9368-656d61746963,rev?*
G04 #@! TF.SameCoordinates,Original*
G04 #@! TF.FileFunction,Paste,Top*
G04 #@! TF.FilePolarity,Positive*
%FSLAX46Y46*%
G04 Gerber Fmt 4.6, Leading zero omitted, Abs format (unit mm)*
G04 Created by KiCad (PCBNEW (5.1.6)-1) date 2022-01-23 19:06:20*
%MOMM*%
%LPD*%
G01*
G04 APERTURE LIST*
%ADD10R,0.700000X0.200000*%
%ADD11R,0.200000X0.700000*%
G04 APERTURE END LIST*
G36*
G01*
X77950000Y-136650000D02*
X79050000Y-136650000D01*
G75*
G02*
X79300000Y-136900000I0J-250000D01*
G01*
X79300000Y-139900000D01*
G75*
G02*
X79050000Y-140150000I-250000J0D01*
G01*
X77950000Y-140150000D01*
G75*
G02*
X77700000Y-139900000I0J250000D01*
G01*
X77700000Y-136900000D01*
G75*
G02*
X77950000Y-136650000I250000J0D01*
G01*
G37*
G36*
G01*
X77950000Y-131250000D02*
X79050000Y-131250000D01*
G75*
G02*
X79300000Y-131500000I0J-250000D01*
G01*
X79300000Y-134500000D01*
G75*
G02*
X79050000Y-134750000I-250000J0D01*
G01*
X77950000Y-134750000D01*
G75*
G02*
X77700000Y-134500000I0J250000D01*
G01*
X77700000Y-131500000D01*
G75*
G02*
X77950000Y-131250000I250000J0D01*
G01*
G37*
G36*
G01*
X98750000Y-136550000D02*
X99850000Y-136550000D01*
G75*
G02*
X100100000Y-136800000I0J-250000D01*
G01*
X100100000Y-139800000D01*
G75*
G02*
X99850000Y-140050000I-250000J0D01*
G01*
X98750000Y-140050000D01*
G75*
G02*
X98500000Y-139800000I0J250000D01*
G01*
X98500000Y-136800000D01*
G75*
G02*
X98750000Y-136550000I250000J0D01*
G01*
G37*
G36*
G01*
X98750000Y-131150000D02*
X99850000Y-131150000D01*
G75*
G02*
X100100000Y-131400000I0J-250000D01*
G01*
X100100000Y-134400000D01*
G75*
G02*
X99850000Y-134650000I-250000J0D01*
G01*
X98750000Y-134650000D01*
G75*
G02*
X98500000Y-134400000I0J250000D01*
G01*
X98500000Y-131400000D01*
G75*
G02*
X98750000Y-131150000I250000J0D01*
G01*
G37*
G36*
G01*
X105350000Y-181850000D02*
X105350000Y-182950000D01*
G75*
G02*
X105100000Y-183200000I-250000J0D01*
G01*
X102100000Y-183200000D01*
G75*
G02*
X101850000Y-182950000I0J250000D01*
G01*
X101850000Y-181850000D01*
G75*
G02*
X102100000Y-181600000I250000J0D01*
G01*
X105100000Y-181600000D01*
G75*
G02*
X105350000Y-181850000I0J-250000D01*
G01*
G37*
G36*
G01*
X110750000Y-181850000D02*
X110750000Y-182950000D01*
G75*
G02*
X110500000Y-183200000I-250000J0D01*
G01*
X107500000Y-183200000D01*
G75*
G02*
X107250000Y-182950000I0J250000D01*
G01*
X107250000Y-181850000D01*
G75*
G02*
X107500000Y-181600000I250000J0D01*
G01*
X110500000Y-181600000D01*
G75*
G02*
X110750000Y-181850000I0J-250000D01*
G01*
G37*
G36*
G01*
X95043750Y-180350000D02*
X95956250Y-180350000D01*
G75*
G02*
X96200000Y-180593750I0J-243750D01*
G01*
X96200000Y-181081250D01*
G75*
G02*
X95956250Y-181325000I-243750J0D01*
G01*
X95043750Y-181325000D01*
G75*
G02*
X94800000Y-181081250I0J243750D01*
G01*
X94800000Y-180593750D01*
G75*
G02*
X95043750Y-180350000I243750J0D01*
G01*
G37*
G36*
G01*
X95043750Y-178475000D02*
X95956250Y-178475000D01*
G75*
G02*
X96200000Y-178718750I0J-243750D01*
G01*
X96200000Y-179206250D01*
G75*
G02*
X95956250Y-179450000I-243750J0D01*
G01*
X95043750Y-179450000D01*
G75*
G02*
X94800000Y-179206250I0J243750D01*
G01*
X94800000Y-178718750D01*
G75*
G02*
X95043750Y-178475000I243750J0D01*
G01*
G37*
D10*
X88460000Y-178000000D03*
X88460000Y-180800000D03*
X91540000Y-178000000D03*
X91540000Y-179600000D03*
X91540000Y-178400000D03*
X91540000Y-181200000D03*
X91540000Y-181600000D03*
X88460000Y-177600000D03*
X91540000Y-177600000D03*
X88460000Y-182400000D03*
X88460000Y-181600000D03*
X91540000Y-182400000D03*
X91540000Y-178800000D03*
X88460000Y-180400000D03*
X88460000Y-179200000D03*
X88460000Y-179600000D03*
X91540000Y-182000000D03*
X88460000Y-181200000D03*
X91540000Y-180400000D03*
X88460000Y-180000000D03*
X88460000Y-178800000D03*
X91540000Y-179200000D03*
X91540000Y-177200000D03*
X88460000Y-177200000D03*
X88460000Y-176800000D03*
X91540000Y-180800000D03*
X91540000Y-176800000D03*
X91540000Y-180000000D03*
X88460000Y-178400000D03*
X88460000Y-182000000D03*
X88460000Y-183200000D03*
X91540000Y-183200000D03*
X91540000Y-182800000D03*
X91540000Y-184000000D03*
X91540000Y-184400000D03*
X88460000Y-183600000D03*
X91540000Y-183600000D03*
X88460000Y-182800000D03*
X88460000Y-184400000D03*
X88460000Y-184000000D03*
D11*
X71100000Y-193060000D03*
X68300000Y-193060000D03*
X71100000Y-196140000D03*
X69500000Y-196140000D03*
X70700000Y-196140000D03*
X67900000Y-196140000D03*
X67500000Y-196140000D03*
X71500000Y-193060000D03*
X71500000Y-196140000D03*
X66700000Y-193060000D03*
X67500000Y-193060000D03*
X66700000Y-196140000D03*
X70300000Y-196140000D03*
X68700000Y-193060000D03*
X69900000Y-193060000D03*
X69500000Y-193060000D03*
X67100000Y-196140000D03*
X67900000Y-193060000D03*
X68700000Y-196140000D03*
X69100000Y-193060000D03*
X70300000Y-193060000D03*
X69900000Y-196140000D03*
X71900000Y-196140000D03*
X71900000Y-193060000D03*
X72300000Y-193060000D03*
X68300000Y-196140000D03*
X72300000Y-196140000D03*
X69100000Y-196140000D03*
X70700000Y-193060000D03*
X67100000Y-193060000D03*
X65900000Y-193060000D03*
X65900000Y-196140000D03*
X66300000Y-196140000D03*
X65100000Y-196140000D03*
X64700000Y-196140000D03*
X65500000Y-193060000D03*
X65500000Y-196140000D03*
X66300000Y-193060000D03*
X64700000Y-193060000D03*
X65100000Y-193060000D03*
G36*
G01*
X102735000Y-158745000D02*
X102735000Y-158175000D01*
G75*
G02*
X102985000Y-157925000I250000J0D01*
G01*
X103555000Y-157925000D01*
G75*
G02*
X103805000Y-158175000I0J-250000D01*
G01*
X103805000Y-158745000D01*
G75*
G02*
X103555000Y-158995000I-250000J0D01*
G01*
X102985000Y-158995000D01*
G75*
G02*
X102735000Y-158745000I0J250000D01*
G01*
G37*
G36*
G01*
X102735000Y-160065000D02*
X102735000Y-159495000D01*
G75*
G02*
X102985000Y-159245000I250000J0D01*
G01*
X103555000Y-159245000D01*
G75*
G02*
X103805000Y-159495000I0J-250000D01*
G01*
X103805000Y-160065000D01*
G75*
G02*
X103555000Y-160315000I-250000J0D01*
G01*
X102985000Y-160315000D01*
G75*
G02*
X102735000Y-160065000I0J250000D01*
G01*
G37*
G36*
G01*
X102735000Y-161385000D02*
X102735000Y-160815000D01*
G75*
G02*
X102985000Y-160565000I250000J0D01*
G01*
X103555000Y-160565000D01*
G75*
G02*
X103805000Y-160815000I0J-250000D01*
G01*
X103805000Y-161385000D01*
G75*
G02*
X103555000Y-161635000I-250000J0D01*
G01*
X102985000Y-161635000D01*
G75*
G02*
X102735000Y-161385000I0J250000D01*
G01*
G37*
G36*
G01*
X102735000Y-162705000D02*
X102735000Y-162135000D01*
G75*
G02*
X102985000Y-161885000I250000J0D01*
G01*
X103555000Y-161885000D01*
G75*
G02*
X103805000Y-162135000I0J-250000D01*
G01*
X103805000Y-162705000D01*
G75*
G02*
X103555000Y-162955000I-250000J0D01*
G01*
X102985000Y-162955000D01*
G75*
G02*
X102735000Y-162705000I0J250000D01*
G01*
G37*
G36*
G01*
X104055000Y-158745000D02*
X104055000Y-158175000D01*
G75*
G02*
X104305000Y-157925000I250000J0D01*
G01*
X104875000Y-157925000D01*
G75*
G02*
X105125000Y-158175000I0J-250000D01*
G01*
X105125000Y-158745000D01*
G75*
G02*
X104875000Y-158995000I-250000J0D01*
G01*
X104305000Y-158995000D01*
G75*
G02*
X104055000Y-158745000I0J250000D01*
G01*
G37*
G36*
G01*
X104055000Y-160065000D02*
X104055000Y-159495000D01*
G75*
G02*
X104305000Y-159245000I250000J0D01*
G01*
X104875000Y-159245000D01*
G75*
G02*
X105125000Y-159495000I0J-250000D01*
G01*
X105125000Y-160065000D01*
G75*
G02*
X104875000Y-160315000I-250000J0D01*
G01*
X104305000Y-160315000D01*
G75*
G02*
X104055000Y-160065000I0J250000D01*
G01*
G37*
G36*
G01*
X104055000Y-161385000D02*
X104055000Y-160815000D01*
G75*
G02*
X104305000Y-160565000I250000J0D01*
G01*
X104875000Y-160565000D01*
G75*
G02*
X105125000Y-160815000I0J-250000D01*
G01*
X105125000Y-161385000D01*
G75*
G02*
X104875000Y-161635000I-250000J0D01*
G01*
X104305000Y-161635000D01*
G75*
G02*
X104055000Y-161385000I0J250000D01*
G01*
G37*
G36*
G01*
X104055000Y-162705000D02*
X104055000Y-162135000D01*
G75*
G02*
X104305000Y-161885000I250000J0D01*
G01*
X104875000Y-161885000D01*
G75*
G02*
X105125000Y-162135000I0J-250000D01*
G01*
X105125000Y-162705000D01*
G75*
G02*
X104875000Y-162955000I-250000J0D01*
G01*
X104305000Y-162955000D01*
G75*
G02*
X104055000Y-162705000I0J250000D01*
G01*
G37*
G36*
G01*
X105375000Y-158745000D02*
X105375000Y-158175000D01*
G75*
G02*
X105625000Y-157925000I250000J0D01*
G01*
X106195000Y-157925000D01*
G75*
G02*
X106445000Y-158175000I0J-250000D01*
G01*
X106445000Y-158745000D01*
G75*
G02*
X106195000Y-158995000I-250000J0D01*
G01*
X105625000Y-158995000D01*
G75*
G02*
X105375000Y-158745000I0J250000D01*
G01*
G37*
G36*
G01*
X105375000Y-160065000D02*
X105375000Y-159495000D01*
G75*
G02*
X105625000Y-159245000I250000J0D01*
G01*
X106195000Y-159245000D01*
G75*
G02*
X106445000Y-159495000I0J-250000D01*
G01*
X106445000Y-160065000D01*
G75*
G02*
X106195000Y-160315000I-250000J0D01*
G01*
X105625000Y-160315000D01*
G75*
G02*
X105375000Y-160065000I0J250000D01*
G01*
G37*
G36*
G01*
X105375000Y-161385000D02*
X105375000Y-160815000D01*
G75*
G02*
X105625000Y-160565000I250000J0D01*
G01*
X106195000Y-160565000D01*
G75*
G02*
X106445000Y-160815000I0J-250000D01*
G01*
X106445000Y-161385000D01*
G75*
G02*
X106195000Y-161635000I-250000J0D01*
G01*
X105625000Y-161635000D01*
G75*
G02*
X105375000Y-161385000I0J250000D01*
G01*
G37*
G36*
G01*
X105375000Y-162705000D02*
X105375000Y-162135000D01*
G75*
G02*
X105625000Y-161885000I250000J0D01*
G01*
X106195000Y-161885000D01*
G75*
G02*
X106445000Y-162135000I0J-250000D01*
G01*
X106445000Y-162705000D01*
G75*
G02*
X106195000Y-162955000I-250000J0D01*
G01*
X105625000Y-162955000D01*
G75*
G02*
X105375000Y-162705000I0J250000D01*
G01*
G37*
G36*
G01*
X106695000Y-158745000D02*
X106695000Y-158175000D01*
G75*
G02*
X106945000Y-157925000I250000J0D01*
G01*
X107515000Y-157925000D01*
G75*
G02*
X107765000Y-158175000I0J-250000D01*
G01*
X107765000Y-158745000D01*
G75*
G02*
X107515000Y-158995000I-250000J0D01*
G01*
X106945000Y-158995000D01*
G75*
G02*
X106695000Y-158745000I0J250000D01*
G01*
G37*
G36*
G01*
X106695000Y-160065000D02*
X106695000Y-159495000D01*
G75*
G02*
X106945000Y-159245000I250000J0D01*
G01*
X107515000Y-159245000D01*
G75*
G02*
X107765000Y-159495000I0J-250000D01*
G01*
X107765000Y-160065000D01*
G75*
G02*
X107515000Y-160315000I-250000J0D01*
G01*
X106945000Y-160315000D01*
G75*
G02*
X106695000Y-160065000I0J250000D01*
G01*
G37*
G36*
G01*
X106695000Y-161385000D02*
X106695000Y-160815000D01*
G75*
G02*
X106945000Y-160565000I250000J0D01*
G01*
X107515000Y-160565000D01*
G75*
G02*
X107765000Y-160815000I0J-250000D01*
G01*
X107765000Y-161385000D01*
G75*
G02*
X107515000Y-161635000I-250000J0D01*
G01*
X106945000Y-161635000D01*
G75*
G02*
X106695000Y-161385000I0J250000D01*
G01*
G37*
G36*
G01*
X106695000Y-162705000D02*
X106695000Y-162135000D01*
G75*
G02*
X106945000Y-161885000I250000J0D01*
G01*
X107515000Y-161885000D01*
G75*
G02*
X107765000Y-162135000I0J-250000D01*
G01*
X107765000Y-162705000D01*
G75*
G02*
X107515000Y-162955000I-250000J0D01*
G01*
X106945000Y-162955000D01*
G75*
G02*
X106695000Y-162705000I0J250000D01*
G01*
G37*
G36*
G01*
X101400000Y-157752500D02*
X101400000Y-157627500D01*
G75*
G02*
X101462500Y-157565000I62500J0D01*
G01*
X102137500Y-157565000D01*
G75*
G02*
X102200000Y-157627500I0J-62500D01*
G01*
X102200000Y-157752500D01*
G75*
G02*
X102137500Y-157815000I-62500J0D01*
G01*
X101462500Y-157815000D01*
G75*
G02*
X101400000Y-157752500I0J62500D01*
G01*
G37*
G36*
G01*
X101400000Y-158252500D02*
X101400000Y-158127500D01*
G75*
G02*
X101462500Y-158065000I62500J0D01*
G01*
X102137500Y-158065000D01*
G75*
G02*
X102200000Y-158127500I0J-62500D01*
G01*
X102200000Y-158252500D01*
G75*
G02*
X102137500Y-158315000I-62500J0D01*
G01*
X101462500Y-158315000D01*
G75*
G02*
X101400000Y-158252500I0J62500D01*
G01*
G37*
G36*
G01*
X101400000Y-158752500D02*
X101400000Y-158627500D01*
G75*
G02*
X101462500Y-158565000I62500J0D01*
G01*
X102137500Y-158565000D01*
G75*
G02*
X102200000Y-158627500I0J-62500D01*
G01*
X102200000Y-158752500D01*
G75*
G02*
X102137500Y-158815000I-62500J0D01*
G01*
X101462500Y-158815000D01*
G75*
G02*
X101400000Y-158752500I0J62500D01*
G01*
G37*
G36*
G01*
X101400000Y-159252500D02*
X101400000Y-159127500D01*
G75*
G02*
X101462500Y-159065000I62500J0D01*
G01*
X102137500Y-159065000D01*
G75*
G02*
X102200000Y-159127500I0J-62500D01*
G01*
X102200000Y-159252500D01*
G75*
G02*
X102137500Y-159315000I-62500J0D01*
G01*
X101462500Y-159315000D01*
G75*
G02*
X101400000Y-159252500I0J62500D01*
G01*
G37*
G36*
G01*
X101400000Y-159752500D02*
X101400000Y-159627500D01*
G75*
G02*
X101462500Y-159565000I62500J0D01*
G01*
X102137500Y-159565000D01*
G75*
G02*
X102200000Y-159627500I0J-62500D01*
G01*
X102200000Y-159752500D01*
G75*
G02*
X102137500Y-159815000I-62500J0D01*
G01*
X101462500Y-159815000D01*
G75*
G02*
X101400000Y-159752500I0J62500D01*
G01*
G37*
G36*
G01*
X101400000Y-160252500D02*
X101400000Y-160127500D01*
G75*
G02*
X101462500Y-160065000I62500J0D01*
G01*
X102137500Y-160065000D01*
G75*
G02*
X102200000Y-160127500I0J-62500D01*
G01*
X102200000Y-160252500D01*
G75*
G02*
X102137500Y-160315000I-62500J0D01*
G01*
X101462500Y-160315000D01*
G75*
G02*
X101400000Y-160252500I0J62500D01*
G01*
G37*
G36*
G01*
X101400000Y-160752500D02*
X101400000Y-160627500D01*
G75*
G02*
X101462500Y-160565000I62500J0D01*
G01*
X102137500Y-160565000D01*
G75*
G02*
X102200000Y-160627500I0J-62500D01*
G01*
X102200000Y-160752500D01*
G75*
G02*
X102137500Y-160815000I-62500J0D01*
G01*
X101462500Y-160815000D01*
G75*
G02*
X101400000Y-160752500I0J62500D01*
G01*
G37*
G36*
G01*
X101400000Y-161252500D02*
X101400000Y-161127500D01*
G75*
G02*
X101462500Y-161065000I62500J0D01*
G01*
X102137500Y-161065000D01*
G75*
G02*
X102200000Y-161127500I0J-62500D01*
G01*
X102200000Y-161252500D01*
G75*
G02*
X102137500Y-161315000I-62500J0D01*
G01*
X101462500Y-161315000D01*
G75*
G02*
X101400000Y-161252500I0J62500D01*
G01*
G37*
G36*
G01*
X101400000Y-161752500D02*
X101400000Y-161627500D01*
G75*
G02*
X101462500Y-161565000I62500J0D01*
G01*
X102137500Y-161565000D01*
G75*
G02*
X102200000Y-161627500I0J-62500D01*
G01*
X102200000Y-161752500D01*
G75*
G02*
X102137500Y-161815000I-62500J0D01*
G01*
X101462500Y-161815000D01*
G75*
G02*
X101400000Y-161752500I0J62500D01*
G01*
G37*
G36*
G01*
X101400000Y-162252500D02*
X101400000Y-162127500D01*
G75*
G02*
X101462500Y-162065000I62500J0D01*
G01*
X102137500Y-162065000D01*
G75*
G02*
X102200000Y-162127500I0J-62500D01*
G01*
X102200000Y-162252500D01*
G75*
G02*
X102137500Y-162315000I-62500J0D01*
G01*
X101462500Y-162315000D01*
G75*
G02*
X101400000Y-162252500I0J62500D01*
G01*
G37*
G36*
G01*
X101400000Y-162752500D02*
X101400000Y-162627500D01*
G75*
G02*
X101462500Y-162565000I62500J0D01*
G01*
X102137500Y-162565000D01*
G75*
G02*
X102200000Y-162627500I0J-62500D01*
G01*
X102200000Y-162752500D01*
G75*
G02*
X102137500Y-162815000I-62500J0D01*
G01*
X101462500Y-162815000D01*
G75*
G02*
X101400000Y-162752500I0J62500D01*
G01*
G37*
G36*
G01*
X101400000Y-163252500D02*
X101400000Y-163127500D01*
G75*
G02*
X101462500Y-163065000I62500J0D01*
G01*
X102137500Y-163065000D01*
G75*
G02*
X102200000Y-163127500I0J-62500D01*
G01*
X102200000Y-163252500D01*
G75*
G02*
X102137500Y-163315000I-62500J0D01*
G01*
X101462500Y-163315000D01*
G75*
G02*
X101400000Y-163252500I0J62500D01*
G01*
G37*
G36*
G01*
X102375000Y-164227500D02*
X102375000Y-163552500D01*
G75*
G02*
X102437500Y-163490000I62500J0D01*
G01*
X102562500Y-163490000D01*
G75*
G02*
X102625000Y-163552500I0J-62500D01*
G01*
X102625000Y-164227500D01*
G75*
G02*
X102562500Y-164290000I-62500J0D01*
G01*
X102437500Y-164290000D01*
G75*
G02*
X102375000Y-164227500I0J62500D01*
G01*
G37*
G36*
G01*
X102875000Y-164227500D02*
X102875000Y-163552500D01*
G75*
G02*
X102937500Y-163490000I62500J0D01*
G01*
X103062500Y-163490000D01*
G75*
G02*
X103125000Y-163552500I0J-62500D01*
G01*
X103125000Y-164227500D01*
G75*
G02*
X103062500Y-164290000I-62500J0D01*
G01*
X102937500Y-164290000D01*
G75*
G02*
X102875000Y-164227500I0J62500D01*
G01*
G37*
G36*
G01*
X103375000Y-164227500D02*
X103375000Y-163552500D01*
G75*
G02*
X103437500Y-163490000I62500J0D01*
G01*
X103562500Y-163490000D01*
G75*
G02*
X103625000Y-163552500I0J-62500D01*
G01*
X103625000Y-164227500D01*
G75*
G02*
X103562500Y-164290000I-62500J0D01*
G01*
X103437500Y-164290000D01*
G75*
G02*
X103375000Y-164227500I0J62500D01*
G01*
G37*
G36*
G01*
X103875000Y-164227500D02*
X103875000Y-163552500D01*
G75*
G02*
X103937500Y-163490000I62500J0D01*
G01*
X104062500Y-163490000D01*
G75*
G02*
X104125000Y-163552500I0J-62500D01*
G01*
X104125000Y-164227500D01*
G75*
G02*
X104062500Y-164290000I-62500J0D01*
G01*
X103937500Y-164290000D01*
G75*
G02*
X103875000Y-164227500I0J62500D01*
G01*
G37*
G36*
G01*
X104375000Y-164227500D02*
X104375000Y-163552500D01*
G75*
G02*
X104437500Y-163490000I62500J0D01*
G01*
X104562500Y-163490000D01*
G75*
G02*
X104625000Y-163552500I0J-62500D01*
G01*
X104625000Y-164227500D01*
G75*
G02*
X104562500Y-164290000I-62500J0D01*
G01*
X104437500Y-164290000D01*
G75*
G02*
X104375000Y-164227500I0J62500D01*
G01*
G37*
G36*
G01*
X104875000Y-164227500D02*
X104875000Y-163552500D01*
G75*
G02*
X104937500Y-163490000I62500J0D01*
G01*
X105062500Y-163490000D01*
G75*
G02*
X105125000Y-163552500I0J-62500D01*
G01*
X105125000Y-164227500D01*
G75*
G02*
X105062500Y-164290000I-62500J0D01*
G01*
X104937500Y-164290000D01*
G75*
G02*
X104875000Y-164227500I0J62500D01*
G01*
G37*
G36*
G01*
X105375000Y-164227500D02*
X105375000Y-163552500D01*
G75*
G02*
X105437500Y-163490000I62500J0D01*
G01*
X105562500Y-163490000D01*
G75*
G02*
X105625000Y-163552500I0J-62500D01*
G01*
X105625000Y-164227500D01*
G75*
G02*
X105562500Y-164290000I-62500J0D01*
G01*
X105437500Y-164290000D01*
G75*
G02*
X105375000Y-164227500I0J62500D01*
G01*
G37*
G36*
G01*
X105875000Y-164227500D02*
X105875000Y-163552500D01*
G75*
G02*
X105937500Y-163490000I62500J0D01*
G01*
X106062500Y-163490000D01*
G75*
G02*
X106125000Y-163552500I0J-62500D01*
G01*
X106125000Y-164227500D01*
G75*
G02*
X106062500Y-164290000I-62500J0D01*
G01*
X105937500Y-164290000D01*
G75*
G02*
X105875000Y-164227500I0J62500D01*
G01*
G37*
G36*
G01*
X106375000Y-164227500D02*
X106375000Y-163552500D01*
G75*
G02*
X106437500Y-163490000I62500J0D01*
G01*
X106562500Y-163490000D01*
G75*
G02*
X106625000Y-163552500I0J-62500D01*
G01*
X106625000Y-164227500D01*
G75*
G02*
X106562500Y-164290000I-62500J0D01*
G01*
X106437500Y-164290000D01*
G75*
G02*
X106375000Y-164227500I0J62500D01*
G01*
G37*
G36*
G01*
X106875000Y-164227500D02*
X106875000Y-163552500D01*
G75*
G02*
X106937500Y-163490000I62500J0D01*
G01*
X107062500Y-163490000D01*
G75*
G02*
X107125000Y-163552500I0J-62500D01*
G01*
X107125000Y-164227500D01*
G75*
G02*
X107062500Y-164290000I-62500J0D01*
G01*
X106937500Y-164290000D01*
G75*
G02*
X106875000Y-164227500I0J62500D01*
G01*
G37*
G36*
G01*
X107375000Y-164227500D02*
X107375000Y-163552500D01*
G75*
G02*
X107437500Y-163490000I62500J0D01*
G01*
X107562500Y-163490000D01*
G75*
G02*
X107625000Y-163552500I0J-62500D01*
G01*
X107625000Y-164227500D01*
G75*
G02*
X107562500Y-164290000I-62500J0D01*
G01*
X107437500Y-164290000D01*
G75*
G02*
X107375000Y-164227500I0J62500D01*
G01*
G37*
G36*
G01*
X107875000Y-164227500D02*
X107875000Y-163552500D01*
G75*
G02*
X107937500Y-163490000I62500J0D01*
G01*
X108062500Y-163490000D01*
G75*
G02*
X108125000Y-163552500I0J-62500D01*
G01*
X108125000Y-164227500D01*
G75*
G02*
X108062500Y-164290000I-62500J0D01*
G01*
X107937500Y-164290000D01*
G75*
G02*
X107875000Y-164227500I0J62500D01*
G01*
G37*
G36*
G01*
X108300000Y-163252500D02*
X108300000Y-163127500D01*
G75*
G02*
X108362500Y-163065000I62500J0D01*
G01*
X109037500Y-163065000D01*
G75*
G02*
X109100000Y-163127500I0J-62500D01*
G01*
X109100000Y-163252500D01*
G75*
G02*
X109037500Y-163315000I-62500J0D01*
G01*
X108362500Y-163315000D01*
G75*
G02*
X108300000Y-163252500I0J62500D01*
G01*
G37*
G36*
G01*
X108300000Y-162752500D02*
X108300000Y-162627500D01*
G75*
G02*
X108362500Y-162565000I62500J0D01*
G01*
X109037500Y-162565000D01*
G75*
G02*
X109100000Y-162627500I0J-62500D01*
G01*
X109100000Y-162752500D01*
G75*
G02*
X109037500Y-162815000I-62500J0D01*
G01*
X108362500Y-162815000D01*
G75*
G02*
X108300000Y-162752500I0J62500D01*
G01*
G37*
G36*
G01*
X108300000Y-162252500D02*
X108300000Y-162127500D01*
G75*
G02*
X108362500Y-162065000I62500J0D01*
G01*
X109037500Y-162065000D01*
G75*
G02*
X109100000Y-162127500I0J-62500D01*
G01*
X109100000Y-162252500D01*
G75*
G02*
X109037500Y-162315000I-62500J0D01*
G01*
X108362500Y-162315000D01*
G75*
G02*
X108300000Y-162252500I0J62500D01*
G01*
G37*
G36*
G01*
X108300000Y-161752500D02*
X108300000Y-161627500D01*
G75*
G02*
X108362500Y-161565000I62500J0D01*
G01*
X109037500Y-161565000D01*
G75*
G02*
X109100000Y-161627500I0J-62500D01*
G01*
X109100000Y-161752500D01*
G75*
G02*
X109037500Y-161815000I-62500J0D01*
G01*
X108362500Y-161815000D01*
G75*
G02*
X108300000Y-161752500I0J62500D01*
G01*
G37*
G36*
G01*
X108300000Y-161252500D02*
X108300000Y-161127500D01*
G75*
G02*
X108362500Y-161065000I62500J0D01*
G01*
X109037500Y-161065000D01*
G75*
G02*
X109100000Y-161127500I0J-62500D01*
G01*
X109100000Y-161252500D01*
G75*
G02*
X109037500Y-161315000I-62500J0D01*
G01*
X108362500Y-161315000D01*
G75*
G02*
X108300000Y-161252500I0J62500D01*
G01*
G37*
G36*
G01*
X108300000Y-160752500D02*
X108300000Y-160627500D01*
G75*
G02*
X108362500Y-160565000I62500J0D01*
G01*
X109037500Y-160565000D01*
G75*
G02*
X109100000Y-160627500I0J-62500D01*
G01*
X109100000Y-160752500D01*
G75*
G02*
X109037500Y-160815000I-62500J0D01*
G01*
X108362500Y-160815000D01*
G75*
G02*
X108300000Y-160752500I0J62500D01*
G01*
G37*
G36*
G01*
X108300000Y-160252500D02*
X108300000Y-160127500D01*
G75*
G02*
X108362500Y-160065000I62500J0D01*
G01*
X109037500Y-160065000D01*
G75*
G02*
X109100000Y-160127500I0J-62500D01*
G01*
X109100000Y-160252500D01*
G75*
G02*
X109037500Y-160315000I-62500J0D01*
G01*
X108362500Y-160315000D01*
G75*
G02*
X108300000Y-160252500I0J62500D01*
G01*
G37*
G36*
G01*
X108300000Y-159752500D02*
X108300000Y-159627500D01*
G75*
G02*
X108362500Y-159565000I62500J0D01*
G01*
X109037500Y-159565000D01*
G75*
G02*
X109100000Y-159627500I0J-62500D01*
G01*
X109100000Y-159752500D01*
G75*
G02*
X109037500Y-159815000I-62500J0D01*
G01*
X108362500Y-159815000D01*
G75*
G02*
X108300000Y-159752500I0J62500D01*
G01*
G37*
G36*
G01*
X108300000Y-159252500D02*
X108300000Y-159127500D01*
G75*
G02*
X108362500Y-159065000I62500J0D01*
G01*
X109037500Y-159065000D01*
G75*
G02*
X109100000Y-159127500I0J-62500D01*
G01*
X109100000Y-159252500D01*
G75*
G02*
X109037500Y-159315000I-62500J0D01*
G01*
X108362500Y-159315000D01*
G75*
G02*
X108300000Y-159252500I0J62500D01*
G01*
G37*
G36*
G01*
X108300000Y-158752500D02*
X108300000Y-158627500D01*
G75*
G02*
X108362500Y-158565000I62500J0D01*
G01*
X109037500Y-158565000D01*
G75*
G02*
X109100000Y-158627500I0J-62500D01*
G01*
X109100000Y-158752500D01*
G75*
G02*
X109037500Y-158815000I-62500J0D01*
G01*
X108362500Y-158815000D01*
G75*
G02*
X108300000Y-158752500I0J62500D01*
G01*
G37*
G36*
G01*
X108300000Y-158252500D02*
X108300000Y-158127500D01*
G75*
G02*
X108362500Y-158065000I62500J0D01*
G01*
X109037500Y-158065000D01*
G75*
G02*
X109100000Y-158127500I0J-62500D01*
G01*
X109100000Y-158252500D01*
G75*
G02*
X109037500Y-158315000I-62500J0D01*
G01*
X108362500Y-158315000D01*
G75*
G02*
X108300000Y-158252500I0J62500D01*
G01*
G37*
G36*
G01*
X108300000Y-157752500D02*
X108300000Y-157627500D01*
G75*
G02*
X108362500Y-157565000I62500J0D01*
G01*
X109037500Y-157565000D01*
G75*
G02*
X109100000Y-157627500I0J-62500D01*
G01*
X109100000Y-157752500D01*
G75*
G02*
X109037500Y-157815000I-62500J0D01*
G01*
X108362500Y-157815000D01*
G75*
G02*
X108300000Y-157752500I0J62500D01*
G01*
G37*
G36*
G01*
X107875000Y-157327500D02*
X107875000Y-156652500D01*
G75*
G02*
X107937500Y-156590000I62500J0D01*
G01*
X108062500Y-156590000D01*
G75*
G02*
X108125000Y-156652500I0J-62500D01*
G01*
X108125000Y-157327500D01*
G75*
G02*
X108062500Y-157390000I-62500J0D01*
G01*
X107937500Y-157390000D01*
G75*
G02*
X107875000Y-157327500I0J62500D01*
G01*
G37*
G36*
G01*
X107375000Y-157327500D02*
X107375000Y-156652500D01*
G75*
G02*
X107437500Y-156590000I62500J0D01*
G01*
X107562500Y-156590000D01*
G75*
G02*
X107625000Y-156652500I0J-62500D01*
G01*
X107625000Y-157327500D01*
G75*
G02*
X107562500Y-157390000I-62500J0D01*
G01*
X107437500Y-157390000D01*
G75*
G02*
X107375000Y-157327500I0J62500D01*
G01*
G37*
G36*
G01*
X106875000Y-157327500D02*
X106875000Y-156652500D01*
G75*
G02*
X106937500Y-156590000I62500J0D01*
G01*
X107062500Y-156590000D01*
G75*
G02*
X107125000Y-156652500I0J-62500D01*
G01*
X107125000Y-157327500D01*
G75*
G02*
X107062500Y-157390000I-62500J0D01*
G01*
X106937500Y-157390000D01*
G75*
G02*
X106875000Y-157327500I0J62500D01*
G01*
G37*
G36*
G01*
X106375000Y-157327500D02*
X106375000Y-156652500D01*
G75*
G02*
X106437500Y-156590000I62500J0D01*
G01*
X106562500Y-156590000D01*
G75*
G02*
X106625000Y-156652500I0J-62500D01*
G01*
X106625000Y-157327500D01*
G75*
G02*
X106562500Y-157390000I-62500J0D01*
G01*
X106437500Y-157390000D01*
G75*
G02*
X106375000Y-157327500I0J62500D01*
G01*
G37*
G36*
G01*
X105875000Y-157327500D02*
X105875000Y-156652500D01*
G75*
G02*
X105937500Y-156590000I62500J0D01*
G01*
X106062500Y-156590000D01*
G75*
G02*
X106125000Y-156652500I0J-62500D01*
G01*
X106125000Y-157327500D01*
G75*
G02*
X106062500Y-157390000I-62500J0D01*
G01*
X105937500Y-157390000D01*
G75*
G02*
X105875000Y-157327500I0J62500D01*
G01*
G37*
G36*
G01*
X105375000Y-157327500D02*
X105375000Y-156652500D01*
G75*
G02*
X105437500Y-156590000I62500J0D01*
G01*
X105562500Y-156590000D01*
G75*
G02*
X105625000Y-156652500I0J-62500D01*
G01*
X105625000Y-157327500D01*
G75*
G02*
X105562500Y-157390000I-62500J0D01*
G01*
X105437500Y-157390000D01*
G75*
G02*
X105375000Y-157327500I0J62500D01*
G01*
G37*
G36*
G01*
X104875000Y-157327500D02*
X104875000Y-156652500D01*
G75*
G02*
X104937500Y-156590000I62500J0D01*
G01*
X105062500Y-156590000D01*
G75*
G02*
X105125000Y-156652500I0J-62500D01*
G01*
X105125000Y-157327500D01*
G75*
G02*
X105062500Y-157390000I-62500J0D01*
G01*
X104937500Y-157390000D01*
G75*
G02*
X104875000Y-157327500I0J62500D01*
G01*
G37*
G36*
G01*
X104375000Y-157327500D02*
X104375000Y-156652500D01*
G75*
G02*
X104437500Y-156590000I62500J0D01*
G01*
X104562500Y-156590000D01*
G75*
G02*
X104625000Y-156652500I0J-62500D01*
G01*
X104625000Y-157327500D01*
G75*
G02*
X104562500Y-157390000I-62500J0D01*
G01*
X104437500Y-157390000D01*
G75*
G02*
X104375000Y-157327500I0J62500D01*
G01*
G37*
G36*
G01*
X103875000Y-157327500D02*
X103875000Y-156652500D01*
G75*
G02*
X103937500Y-156590000I62500J0D01*
G01*
X104062500Y-156590000D01*
G75*
G02*
X104125000Y-156652500I0J-62500D01*
G01*
X104125000Y-157327500D01*
G75*
G02*
X104062500Y-157390000I-62500J0D01*
G01*
X103937500Y-157390000D01*
G75*
G02*
X103875000Y-157327500I0J62500D01*
G01*
G37*
G36*
G01*
X103375000Y-157327500D02*
X103375000Y-156652500D01*
G75*
G02*
X103437500Y-156590000I62500J0D01*
G01*
X103562500Y-156590000D01*
G75*
G02*
X103625000Y-156652500I0J-62500D01*
G01*
X103625000Y-157327500D01*
G75*
G02*
X103562500Y-157390000I-62500J0D01*
G01*
X103437500Y-157390000D01*
G75*
G02*
X103375000Y-157327500I0J62500D01*
G01*
G37*
G36*
G01*
X102875000Y-157327500D02*
X102875000Y-156652500D01*
G75*
G02*
X102937500Y-156590000I62500J0D01*
G01*
X103062500Y-156590000D01*
G75*
G02*
X103125000Y-156652500I0J-62500D01*
G01*
X103125000Y-157327500D01*
G75*
G02*
X103062500Y-157390000I-62500J0D01*
G01*
X102937500Y-157390000D01*
G75*
G02*
X102875000Y-157327500I0J62500D01*
G01*
G37*
G36*
G01*
X102375000Y-157327500D02*
X102375000Y-156652500D01*
G75*
G02*
X102437500Y-156590000I62500J0D01*
G01*
X102562500Y-156590000D01*
G75*
G02*
X102625000Y-156652500I0J-62500D01*
G01*
X102625000Y-157327500D01*
G75*
G02*
X102562500Y-157390000I-62500J0D01*
G01*
X102437500Y-157390000D01*
G75*
G02*
X102375000Y-157327500I0J62500D01*
G01*
G37*
G36*
G01*
X92415000Y-162195000D02*
X92415000Y-162765000D01*
G75*
G02*
X92165000Y-163015000I-250000J0D01*
G01*
X91595000Y-163015000D01*
G75*
G02*
X91345000Y-162765000I0J250000D01*
G01*
X91345000Y-162195000D01*
G75*
G02*
X91595000Y-161945000I250000J0D01*
G01*
X92165000Y-161945000D01*
G75*
G02*
X92415000Y-162195000I0J-250000D01*
G01*
G37*
G36*
G01*
X92415000Y-160875000D02*
X92415000Y-161445000D01*
G75*
G02*
X92165000Y-161695000I-250000J0D01*
G01*
X91595000Y-161695000D01*
G75*
G02*
X91345000Y-161445000I0J250000D01*
G01*
X91345000Y-160875000D01*
G75*
G02*
X91595000Y-160625000I250000J0D01*
G01*
X92165000Y-160625000D01*
G75*
G02*
X92415000Y-160875000I0J-250000D01*
G01*
G37*
G36*
G01*
X92415000Y-159555000D02*
X92415000Y-160125000D01*
G75*
G02*
X92165000Y-160375000I-250000J0D01*
G01*
X91595000Y-160375000D01*
G75*
G02*
X91345000Y-160125000I0J250000D01*
G01*
X91345000Y-159555000D01*
G75*
G02*
X91595000Y-159305000I250000J0D01*
G01*
X92165000Y-159305000D01*
G75*
G02*
X92415000Y-159555000I0J-250000D01*
G01*
G37*
G36*
G01*
X92415000Y-158235000D02*
X92415000Y-158805000D01*
G75*
G02*
X92165000Y-159055000I-250000J0D01*
G01*
X91595000Y-159055000D01*
G75*
G02*
X91345000Y-158805000I0J250000D01*
G01*
X91345000Y-158235000D01*
G75*
G02*
X91595000Y-157985000I250000J0D01*
G01*
X92165000Y-157985000D01*
G75*
G02*
X92415000Y-158235000I0J-250000D01*
G01*
G37*
G36*
G01*
X91095000Y-162195000D02*
X91095000Y-162765000D01*
G75*
G02*
X90845000Y-163015000I-250000J0D01*
G01*
X90275000Y-163015000D01*
G75*
G02*
X90025000Y-162765000I0J250000D01*
G01*
X90025000Y-162195000D01*
G75*
G02*
X90275000Y-161945000I250000J0D01*
G01*
X90845000Y-161945000D01*
G75*
G02*
X91095000Y-162195000I0J-250000D01*
G01*
G37*
G36*
G01*
X91095000Y-160875000D02*
X91095000Y-161445000D01*
G75*
G02*
X90845000Y-161695000I-250000J0D01*
G01*
X90275000Y-161695000D01*
G75*
G02*
X90025000Y-161445000I0J250000D01*
G01*
X90025000Y-160875000D01*
G75*
G02*
X90275000Y-160625000I250000J0D01*
G01*
X90845000Y-160625000D01*
G75*
G02*
X91095000Y-160875000I0J-250000D01*
G01*
G37*
G36*
G01*
X91095000Y-159555000D02*
X91095000Y-160125000D01*
G75*
G02*
X90845000Y-160375000I-250000J0D01*
G01*
X90275000Y-160375000D01*
G75*
G02*
X90025000Y-160125000I0J250000D01*
G01*
X90025000Y-159555000D01*
G75*
G02*
X90275000Y-159305000I250000J0D01*
G01*
X90845000Y-159305000D01*
G75*
G02*
X91095000Y-159555000I0J-250000D01*
G01*
G37*
G36*
G01*
X91095000Y-158235000D02*
X91095000Y-158805000D01*
G75*
G02*
X90845000Y-159055000I-250000J0D01*
G01*
X90275000Y-159055000D01*
G75*
G02*
X90025000Y-158805000I0J250000D01*
G01*
X90025000Y-158235000D01*
G75*
G02*
X90275000Y-157985000I250000J0D01*
G01*
X90845000Y-157985000D01*
G75*
G02*
X91095000Y-158235000I0J-250000D01*
G01*
G37*
G36*
G01*
X89775000Y-162195000D02*
X89775000Y-162765000D01*
G75*
G02*
X89525000Y-163015000I-250000J0D01*
G01*
X88955000Y-163015000D01*
G75*
G02*
X88705000Y-162765000I0J250000D01*
G01*
X88705000Y-162195000D01*
G75*
G02*
X88955000Y-161945000I250000J0D01*
G01*
X89525000Y-161945000D01*
G75*
G02*
X89775000Y-162195000I0J-250000D01*
G01*
G37*
G36*
G01*
X89775000Y-160875000D02*
X89775000Y-161445000D01*
G75*
G02*
X89525000Y-161695000I-250000J0D01*
G01*
X88955000Y-161695000D01*
G75*
G02*
X88705000Y-161445000I0J250000D01*
G01*
X88705000Y-160875000D01*
G75*
G02*
X88955000Y-160625000I250000J0D01*
G01*
X89525000Y-160625000D01*
G75*
G02*
X89775000Y-160875000I0J-250000D01*
G01*
G37*
G36*
G01*
X89775000Y-159555000D02*
X89775000Y-160125000D01*
G75*
G02*
X89525000Y-160375000I-250000J0D01*
G01*
X88955000Y-160375000D01*
G75*
G02*
X88705000Y-160125000I0J250000D01*
G01*
X88705000Y-159555000D01*
G75*
G02*
X88955000Y-159305000I250000J0D01*
G01*
X89525000Y-159305000D01*
G75*
G02*
X89775000Y-159555000I0J-250000D01*
G01*
G37*
G36*
G01*
X89775000Y-158235000D02*
X89775000Y-158805000D01*
G75*
G02*
X89525000Y-159055000I-250000J0D01*
G01*
X88955000Y-159055000D01*
G75*
G02*
X88705000Y-158805000I0J250000D01*
G01*
X88705000Y-158235000D01*
G75*
G02*
X88955000Y-157985000I250000J0D01*
G01*
X89525000Y-157985000D01*
G75*
G02*
X89775000Y-158235000I0J-250000D01*
G01*
G37*
G36*
G01*
X88455000Y-162195000D02*
X88455000Y-162765000D01*
G75*
G02*
X88205000Y-163015000I-250000J0D01*
G01*
X87635000Y-163015000D01*
G75*
G02*
X87385000Y-162765000I0J250000D01*
G01*
X87385000Y-162195000D01*
G75*
G02*
X87635000Y-161945000I250000J0D01*
G01*
X88205000Y-161945000D01*
G75*
G02*
X88455000Y-162195000I0J-250000D01*
G01*
G37*
G36*
G01*
X88455000Y-160875000D02*
X88455000Y-161445000D01*
G75*
G02*
X88205000Y-161695000I-250000J0D01*
G01*
X87635000Y-161695000D01*
G75*
G02*
X87385000Y-161445000I0J250000D01*
G01*
X87385000Y-160875000D01*
G75*
G02*
X87635000Y-160625000I250000J0D01*
G01*
X88205000Y-160625000D01*
G75*
G02*
X88455000Y-160875000I0J-250000D01*
G01*
G37*
G36*
G01*
X88455000Y-159555000D02*
X88455000Y-160125000D01*
G75*
G02*
X88205000Y-160375000I-250000J0D01*
G01*
X87635000Y-160375000D01*
G75*
G02*
X87385000Y-160125000I0J250000D01*
G01*
X87385000Y-159555000D01*
G75*
G02*
X87635000Y-159305000I250000J0D01*
G01*
X88205000Y-159305000D01*
G75*
G02*
X88455000Y-159555000I0J-250000D01*
G01*
G37*
G36*
G01*
X88455000Y-158235000D02*
X88455000Y-158805000D01*
G75*
G02*
X88205000Y-159055000I-250000J0D01*
G01*
X87635000Y-159055000D01*
G75*
G02*
X87385000Y-158805000I0J250000D01*
G01*
X87385000Y-158235000D01*
G75*
G02*
X87635000Y-157985000I250000J0D01*
G01*
X88205000Y-157985000D01*
G75*
G02*
X88455000Y-158235000I0J-250000D01*
G01*
G37*
G36*
G01*
X93750000Y-163187500D02*
X93750000Y-163312500D01*
G75*
G02*
X93687500Y-163375000I-62500J0D01*
G01*
X93012500Y-163375000D01*
G75*
G02*
X92950000Y-163312500I0J62500D01*
G01*
X92950000Y-163187500D01*
G75*
G02*
X93012500Y-163125000I62500J0D01*
G01*
X93687500Y-163125000D01*
G75*
G02*
X93750000Y-163187500I0J-62500D01*
G01*
G37*
G36*
G01*
X93750000Y-162687500D02*
X93750000Y-162812500D01*
G75*
G02*
X93687500Y-162875000I-62500J0D01*
G01*
X93012500Y-162875000D01*
G75*
G02*
X92950000Y-162812500I0J62500D01*
G01*
X92950000Y-162687500D01*
G75*
G02*
X93012500Y-162625000I62500J0D01*
G01*
X93687500Y-162625000D01*
G75*
G02*
X93750000Y-162687500I0J-62500D01*
G01*
G37*
G36*
G01*
X93750000Y-162187500D02*
X93750000Y-162312500D01*
G75*
G02*
X93687500Y-162375000I-62500J0D01*
G01*
X93012500Y-162375000D01*
G75*
G02*
X92950000Y-162312500I0J62500D01*
G01*
X92950000Y-162187500D01*
G75*
G02*
X93012500Y-162125000I62500J0D01*
G01*
X93687500Y-162125000D01*
G75*
G02*
X93750000Y-162187500I0J-62500D01*
G01*
G37*
G36*
G01*
X93750000Y-161687500D02*
X93750000Y-161812500D01*
G75*
G02*
X93687500Y-161875000I-62500J0D01*
G01*
X93012500Y-161875000D01*
G75*
G02*
X92950000Y-161812500I0J62500D01*
G01*
X92950000Y-161687500D01*
G75*
G02*
X93012500Y-161625000I62500J0D01*
G01*
X93687500Y-161625000D01*
G75*
G02*
X93750000Y-161687500I0J-62500D01*
G01*
G37*
G36*
G01*
X93750000Y-161187500D02*
X93750000Y-161312500D01*
G75*
G02*
X93687500Y-161375000I-62500J0D01*
G01*
X93012500Y-161375000D01*
G75*
G02*
X92950000Y-161312500I0J62500D01*
G01*
X92950000Y-161187500D01*
G75*
G02*
X93012500Y-161125000I62500J0D01*
G01*
X93687500Y-161125000D01*
G75*
G02*
X93750000Y-161187500I0J-62500D01*
G01*
G37*
G36*
G01*
X93750000Y-160687500D02*
X93750000Y-160812500D01*
G75*
G02*
X93687500Y-160875000I-62500J0D01*
G01*
X93012500Y-160875000D01*
G75*
G02*
X92950000Y-160812500I0J62500D01*
G01*
X92950000Y-160687500D01*
G75*
G02*
X93012500Y-160625000I62500J0D01*
G01*
X93687500Y-160625000D01*
G75*
G02*
X93750000Y-160687500I0J-62500D01*
G01*
G37*
G36*
G01*
X93750000Y-160187500D02*
X93750000Y-160312500D01*
G75*
G02*
X93687500Y-160375000I-62500J0D01*
G01*
X93012500Y-160375000D01*
G75*
G02*
X92950000Y-160312500I0J62500D01*
G01*
X92950000Y-160187500D01*
G75*
G02*
X93012500Y-160125000I62500J0D01*
G01*
X93687500Y-160125000D01*
G75*
G02*
X93750000Y-160187500I0J-62500D01*
G01*
G37*
G36*
G01*
X93750000Y-159687500D02*
X93750000Y-159812500D01*
G75*
G02*
X93687500Y-159875000I-62500J0D01*
G01*
X93012500Y-159875000D01*
G75*
G02*
X92950000Y-159812500I0J62500D01*
G01*
X92950000Y-159687500D01*
G75*
G02*
X93012500Y-159625000I62500J0D01*
G01*
X93687500Y-159625000D01*
G75*
G02*
X93750000Y-159687500I0J-62500D01*
G01*
G37*
G36*
G01*
X93750000Y-159187500D02*
X93750000Y-159312500D01*
G75*
G02*
X93687500Y-159375000I-62500J0D01*
G01*
X93012500Y-159375000D01*
G75*
G02*
X92950000Y-159312500I0J62500D01*
G01*
X92950000Y-159187500D01*
G75*
G02*
X93012500Y-159125000I62500J0D01*
G01*
X93687500Y-159125000D01*
G75*
G02*
X93750000Y-159187500I0J-62500D01*
G01*
G37*
G36*
G01*
X93750000Y-158687500D02*
X93750000Y-158812500D01*
G75*
G02*
X93687500Y-158875000I-62500J0D01*
G01*
X93012500Y-158875000D01*
G75*
G02*
X92950000Y-158812500I0J62500D01*
G01*
X92950000Y-158687500D01*
G75*
G02*
X93012500Y-158625000I62500J0D01*
G01*
X93687500Y-158625000D01*
G75*
G02*
X93750000Y-158687500I0J-62500D01*
G01*
G37*
G36*
G01*
X93750000Y-158187500D02*
X93750000Y-158312500D01*
G75*
G02*
X93687500Y-158375000I-62500J0D01*
G01*
X93012500Y-158375000D01*
G75*
G02*
X92950000Y-158312500I0J62500D01*
G01*
X92950000Y-158187500D01*
G75*
G02*
X93012500Y-158125000I62500J0D01*
G01*
X93687500Y-158125000D01*
G75*
G02*
X93750000Y-158187500I0J-62500D01*
G01*
G37*
G36*
G01*
X93750000Y-157687500D02*
X93750000Y-157812500D01*
G75*
G02*
X93687500Y-157875000I-62500J0D01*
G01*
X93012500Y-157875000D01*
G75*
G02*
X92950000Y-157812500I0J62500D01*
G01*
X92950000Y-157687500D01*
G75*
G02*
X93012500Y-157625000I62500J0D01*
G01*
X93687500Y-157625000D01*
G75*
G02*
X93750000Y-157687500I0J-62500D01*
G01*
G37*
G36*
G01*
X92775000Y-156712500D02*
X92775000Y-157387500D01*
G75*
G02*
X92712500Y-157450000I-62500J0D01*
G01*
X92587500Y-157450000D01*
G75*
G02*
X92525000Y-157387500I0J62500D01*
G01*
X92525000Y-156712500D01*
G75*
G02*
X92587500Y-156650000I62500J0D01*
G01*
X92712500Y-156650000D01*
G75*
G02*
X92775000Y-156712500I0J-62500D01*
G01*
G37*
G36*
G01*
X92275000Y-156712500D02*
X92275000Y-157387500D01*
G75*
G02*
X92212500Y-157450000I-62500J0D01*
G01*
X92087500Y-157450000D01*
G75*
G02*
X92025000Y-157387500I0J62500D01*
G01*
X92025000Y-156712500D01*
G75*
G02*
X92087500Y-156650000I62500J0D01*
G01*
X92212500Y-156650000D01*
G75*
G02*
X92275000Y-156712500I0J-62500D01*
G01*
G37*
G36*
G01*
X91775000Y-156712500D02*
X91775000Y-157387500D01*
G75*
G02*
X91712500Y-157450000I-62500J0D01*
G01*
X91587500Y-157450000D01*
G75*
G02*
X91525000Y-157387500I0J62500D01*
G01*
X91525000Y-156712500D01*
G75*
G02*
X91587500Y-156650000I62500J0D01*
G01*
X91712500Y-156650000D01*
G75*
G02*
X91775000Y-156712500I0J-62500D01*
G01*
G37*
G36*
G01*
X91275000Y-156712500D02*
X91275000Y-157387500D01*
G75*
G02*
X91212500Y-157450000I-62500J0D01*
G01*
X91087500Y-157450000D01*
G75*
G02*
X91025000Y-157387500I0J62500D01*
G01*
X91025000Y-156712500D01*
G75*
G02*
X91087500Y-156650000I62500J0D01*
G01*
X91212500Y-156650000D01*
G75*
G02*
X91275000Y-156712500I0J-62500D01*
G01*
G37*
G36*
G01*
X90775000Y-156712500D02*
X90775000Y-157387500D01*
G75*
G02*
X90712500Y-157450000I-62500J0D01*
G01*
X90587500Y-157450000D01*
G75*
G02*
X90525000Y-157387500I0J62500D01*
G01*
X90525000Y-156712500D01*
G75*
G02*
X90587500Y-156650000I62500J0D01*
G01*
X90712500Y-156650000D01*
G75*
G02*
X90775000Y-156712500I0J-62500D01*
G01*
G37*
G36*
G01*
X90275000Y-156712500D02*
X90275000Y-157387500D01*
G75*
G02*
X90212500Y-157450000I-62500J0D01*
G01*
X90087500Y-157450000D01*
G75*
G02*
X90025000Y-157387500I0J62500D01*
G01*
X90025000Y-156712500D01*
G75*
G02*
X90087500Y-156650000I62500J0D01*
G01*
X90212500Y-156650000D01*
G75*
G02*
X90275000Y-156712500I0J-62500D01*
G01*
G37*
G36*
G01*
X89775000Y-156712500D02*
X89775000Y-157387500D01*
G75*
G02*
X89712500Y-157450000I-62500J0D01*
G01*
X89587500Y-157450000D01*
G75*
G02*
X89525000Y-157387500I0J62500D01*
G01*
X89525000Y-156712500D01*
G75*
G02*
X89587500Y-156650000I62500J0D01*
G01*
X89712500Y-156650000D01*
G75*
G02*
X89775000Y-156712500I0J-62500D01*
G01*
G37*
G36*
G01*
X89275000Y-156712500D02*
X89275000Y-157387500D01*
G75*
G02*
X89212500Y-157450000I-62500J0D01*
G01*
X89087500Y-157450000D01*
G75*
G02*
X89025000Y-157387500I0J62500D01*
G01*
X89025000Y-156712500D01*
G75*
G02*
X89087500Y-156650000I62500J0D01*
G01*
X89212500Y-156650000D01*
G75*
G02*
X89275000Y-156712500I0J-62500D01*
G01*
G37*
G36*
G01*
X88775000Y-156712500D02*
X88775000Y-157387500D01*
G75*
G02*
X88712500Y-157450000I-62500J0D01*
G01*
X88587500Y-157450000D01*
G75*
G02*
X88525000Y-157387500I0J62500D01*
G01*
X88525000Y-156712500D01*
G75*
G02*
X88587500Y-156650000I62500J0D01*
G01*
X88712500Y-156650000D01*
G75*
G02*
X88775000Y-156712500I0J-62500D01*
G01*
G37*
G36*
G01*
X88275000Y-156712500D02*
X88275000Y-157387500D01*
G75*
G02*
X88212500Y-157450000I-62500J0D01*
G01*
X88087500Y-157450000D01*
G75*
G02*
X88025000Y-157387500I0J62500D01*
G01*
X88025000Y-156712500D01*
G75*
G02*
X88087500Y-156650000I62500J0D01*
G01*
X88212500Y-156650000D01*
G75*
G02*
X88275000Y-156712500I0J-62500D01*
G01*
G37*
G36*
G01*
X87775000Y-156712500D02*
X87775000Y-157387500D01*
G75*
G02*
X87712500Y-157450000I-62500J0D01*
G01*
X87587500Y-157450000D01*
G75*
G02*
X87525000Y-157387500I0J62500D01*
G01*
X87525000Y-156712500D01*
G75*
G02*
X87587500Y-156650000I62500J0D01*
G01*
X87712500Y-156650000D01*
G75*
G02*
X87775000Y-156712500I0J-62500D01*
G01*
G37*
G36*
G01*
X87275000Y-156712500D02*
X87275000Y-157387500D01*
G75*
G02*
X87212500Y-157450000I-62500J0D01*
G01*
X87087500Y-157450000D01*
G75*
G02*
X87025000Y-157387500I0J62500D01*
G01*
X87025000Y-156712500D01*
G75*
G02*
X87087500Y-156650000I62500J0D01*
G01*
X87212500Y-156650000D01*
G75*
G02*
X87275000Y-156712500I0J-62500D01*
G01*
G37*
G36*
G01*
X86850000Y-157687500D02*
X86850000Y-157812500D01*
G75*
G02*
X86787500Y-157875000I-62500J0D01*
G01*
X86112500Y-157875000D01*
G75*
G02*
X86050000Y-157812500I0J62500D01*
G01*
X86050000Y-157687500D01*
G75*
G02*
X86112500Y-157625000I62500J0D01*
G01*
X86787500Y-157625000D01*
G75*
G02*
X86850000Y-157687500I0J-62500D01*
G01*
G37*
G36*
G01*
X86850000Y-158187500D02*
X86850000Y-158312500D01*
G75*
G02*
X86787500Y-158375000I-62500J0D01*
G01*
X86112500Y-158375000D01*
G75*
G02*
X86050000Y-158312500I0J62500D01*
G01*
X86050000Y-158187500D01*
G75*
G02*
X86112500Y-158125000I62500J0D01*
G01*
X86787500Y-158125000D01*
G75*
G02*
X86850000Y-158187500I0J-62500D01*
G01*
G37*
G36*
G01*
X86850000Y-158687500D02*
X86850000Y-158812500D01*
G75*
G02*
X86787500Y-158875000I-62500J0D01*
G01*
X86112500Y-158875000D01*
G75*
G02*
X86050000Y-158812500I0J62500D01*
G01*
X86050000Y-158687500D01*
G75*
G02*
X86112500Y-158625000I62500J0D01*
G01*
X86787500Y-158625000D01*
G75*
G02*
X86850000Y-158687500I0J-62500D01*
G01*
G37*
G36*
G01*
X86850000Y-159187500D02*
X86850000Y-159312500D01*
G75*
G02*
X86787500Y-159375000I-62500J0D01*
G01*
X86112500Y-159375000D01*
G75*
G02*
X86050000Y-159312500I0J62500D01*
G01*
X86050000Y-159187500D01*
G75*
G02*
X86112500Y-159125000I62500J0D01*
G01*
X86787500Y-159125000D01*
G75*
G02*
X86850000Y-159187500I0J-62500D01*
G01*
G37*
G36*
G01*
X86850000Y-159687500D02*
X86850000Y-159812500D01*
G75*
G02*
X86787500Y-159875000I-62500J0D01*
G01*
X86112500Y-159875000D01*
G75*
G02*
X86050000Y-159812500I0J62500D01*
G01*
X86050000Y-159687500D01*
G75*
G02*
X86112500Y-159625000I62500J0D01*
G01*
X86787500Y-159625000D01*
G75*
G02*
X86850000Y-159687500I0J-62500D01*
G01*
G37*
G36*
G01*
X86850000Y-160187500D02*
X86850000Y-160312500D01*
G75*
G02*
X86787500Y-160375000I-62500J0D01*
G01*
X86112500Y-160375000D01*
G75*
G02*
X86050000Y-160312500I0J62500D01*
G01*
X86050000Y-160187500D01*
G75*
G02*
X86112500Y-160125000I62500J0D01*
G01*
X86787500Y-160125000D01*
G75*
G02*
X86850000Y-160187500I0J-62500D01*
G01*
G37*
G36*
G01*
X86850000Y-160687500D02*
X86850000Y-160812500D01*
G75*
G02*
X86787500Y-160875000I-62500J0D01*
G01*
X86112500Y-160875000D01*
G75*
G02*
X86050000Y-160812500I0J62500D01*
G01*
X86050000Y-160687500D01*
G75*
G02*
X86112500Y-160625000I62500J0D01*
G01*
X86787500Y-160625000D01*
G75*
G02*
X86850000Y-160687500I0J-62500D01*
G01*
G37*
G36*
G01*
X86850000Y-161187500D02*
X86850000Y-161312500D01*
G75*
G02*
X86787500Y-161375000I-62500J0D01*
G01*
X86112500Y-161375000D01*
G75*
G02*
X86050000Y-161312500I0J62500D01*
G01*
X86050000Y-161187500D01*
G75*
G02*
X86112500Y-161125000I62500J0D01*
G01*
X86787500Y-161125000D01*
G75*
G02*
X86850000Y-161187500I0J-62500D01*
G01*
G37*
G36*
G01*
X86850000Y-161687500D02*
X86850000Y-161812500D01*
G75*
G02*
X86787500Y-161875000I-62500J0D01*
G01*
X86112500Y-161875000D01*
G75*
G02*
X86050000Y-161812500I0J62500D01*
G01*
X86050000Y-161687500D01*
G75*
G02*
X86112500Y-161625000I62500J0D01*
G01*
X86787500Y-161625000D01*
G75*
G02*
X86850000Y-161687500I0J-62500D01*
G01*
G37*
G36*
G01*
X86850000Y-162187500D02*
X86850000Y-162312500D01*
G75*
G02*
X86787500Y-162375000I-62500J0D01*
G01*
X86112500Y-162375000D01*
G75*
G02*
X86050000Y-162312500I0J62500D01*
G01*
X86050000Y-162187500D01*
G75*
G02*
X86112500Y-162125000I62500J0D01*
G01*
X86787500Y-162125000D01*
G75*
G02*
X86850000Y-162187500I0J-62500D01*
G01*
G37*
G36*
G01*
X86850000Y-162687500D02*
X86850000Y-162812500D01*
G75*
G02*
X86787500Y-162875000I-62500J0D01*
G01*
X86112500Y-162875000D01*
G75*
G02*
X86050000Y-162812500I0J62500D01*
G01*
X86050000Y-162687500D01*
G75*
G02*
X86112500Y-162625000I62500J0D01*
G01*
X86787500Y-162625000D01*
G75*
G02*
X86850000Y-162687500I0J-62500D01*
G01*
G37*
G36*
G01*
X86850000Y-163187500D02*
X86850000Y-163312500D01*
G75*
G02*
X86787500Y-163375000I-62500J0D01*
G01*
X86112500Y-163375000D01*
G75*
G02*
X86050000Y-163312500I0J62500D01*
G01*
X86050000Y-163187500D01*
G75*
G02*
X86112500Y-163125000I62500J0D01*
G01*
X86787500Y-163125000D01*
G75*
G02*
X86850000Y-163187500I0J-62500D01*
G01*
G37*
G36*
G01*
X87275000Y-163612500D02*
X87275000Y-164287500D01*
G75*
G02*
X87212500Y-164350000I-62500J0D01*
G01*
X87087500Y-164350000D01*
G75*
G02*
X87025000Y-164287500I0J62500D01*
G01*
X87025000Y-163612500D01*
G75*
G02*
X87087500Y-163550000I62500J0D01*
G01*
X87212500Y-163550000D01*
G75*
G02*
X87275000Y-163612500I0J-62500D01*
G01*
G37*
G36*
G01*
X87775000Y-163612500D02*
X87775000Y-164287500D01*
G75*
G02*
X87712500Y-164350000I-62500J0D01*
G01*
X87587500Y-164350000D01*
G75*
G02*
X87525000Y-164287500I0J62500D01*
G01*
X87525000Y-163612500D01*
G75*
G02*
X87587500Y-163550000I62500J0D01*
G01*
X87712500Y-163550000D01*
G75*
G02*
X87775000Y-163612500I0J-62500D01*
G01*
G37*
G36*
G01*
X88275000Y-163612500D02*
X88275000Y-164287500D01*
G75*
G02*
X88212500Y-164350000I-62500J0D01*
G01*
X88087500Y-164350000D01*
G75*
G02*
X88025000Y-164287500I0J62500D01*
G01*
X88025000Y-163612500D01*
G75*
G02*
X88087500Y-163550000I62500J0D01*
G01*
X88212500Y-163550000D01*
G75*
G02*
X88275000Y-163612500I0J-62500D01*
G01*
G37*
G36*
G01*
X88775000Y-163612500D02*
X88775000Y-164287500D01*
G75*
G02*
X88712500Y-164350000I-62500J0D01*
G01*
X88587500Y-164350000D01*
G75*
G02*
X88525000Y-164287500I0J62500D01*
G01*
X88525000Y-163612500D01*
G75*
G02*
X88587500Y-163550000I62500J0D01*
G01*
X88712500Y-163550000D01*
G75*
G02*
X88775000Y-163612500I0J-62500D01*
G01*
G37*
G36*
G01*
X89275000Y-163612500D02*
X89275000Y-164287500D01*
G75*
G02*
X89212500Y-164350000I-62500J0D01*
G01*
X89087500Y-164350000D01*
G75*
G02*
X89025000Y-164287500I0J62500D01*
G01*
X89025000Y-163612500D01*
G75*
G02*
X89087500Y-163550000I62500J0D01*
G01*
X89212500Y-163550000D01*
G75*
G02*
X89275000Y-163612500I0J-62500D01*
G01*
G37*
G36*
G01*
X89775000Y-163612500D02*
X89775000Y-164287500D01*
G75*
G02*
X89712500Y-164350000I-62500J0D01*
G01*
X89587500Y-164350000D01*
G75*
G02*
X89525000Y-164287500I0J62500D01*
G01*
X89525000Y-163612500D01*
G75*
G02*
X89587500Y-163550000I62500J0D01*
G01*
X89712500Y-163550000D01*
G75*
G02*
X89775000Y-163612500I0J-62500D01*
G01*
G37*
G36*
G01*
X90275000Y-163612500D02*
X90275000Y-164287500D01*
G75*
G02*
X90212500Y-164350000I-62500J0D01*
G01*
X90087500Y-164350000D01*
G75*
G02*
X90025000Y-164287500I0J62500D01*
G01*
X90025000Y-163612500D01*
G75*
G02*
X90087500Y-163550000I62500J0D01*
G01*
X90212500Y-163550000D01*
G75*
G02*
X90275000Y-163612500I0J-62500D01*
G01*
G37*
G36*
G01*
X90775000Y-163612500D02*
X90775000Y-164287500D01*
G75*
G02*
X90712500Y-164350000I-62500J0D01*
G01*
X90587500Y-164350000D01*
G75*
G02*
X90525000Y-164287500I0J62500D01*
G01*
X90525000Y-163612500D01*
G75*
G02*
X90587500Y-163550000I62500J0D01*
G01*
X90712500Y-163550000D01*
G75*
G02*
X90775000Y-163612500I0J-62500D01*
G01*
G37*
G36*
G01*
X91275000Y-163612500D02*
X91275000Y-164287500D01*
G75*
G02*
X91212500Y-164350000I-62500J0D01*
G01*
X91087500Y-164350000D01*
G75*
G02*
X91025000Y-164287500I0J62500D01*
G01*
X91025000Y-163612500D01*
G75*
G02*
X91087500Y-163550000I62500J0D01*
G01*
X91212500Y-163550000D01*
G75*
G02*
X91275000Y-163612500I0J-62500D01*
G01*
G37*
G36*
G01*
X91775000Y-163612500D02*
X91775000Y-164287500D01*
G75*
G02*
X91712500Y-164350000I-62500J0D01*
G01*
X91587500Y-164350000D01*
G75*
G02*
X91525000Y-164287500I0J62500D01*
G01*
X91525000Y-163612500D01*
G75*
G02*
X91587500Y-163550000I62500J0D01*
G01*
X91712500Y-163550000D01*
G75*
G02*
X91775000Y-163612500I0J-62500D01*
G01*
G37*
G36*
G01*
X92275000Y-163612500D02*
X92275000Y-164287500D01*
G75*
G02*
X92212500Y-164350000I-62500J0D01*
G01*
X92087500Y-164350000D01*
G75*
G02*
X92025000Y-164287500I0J62500D01*
G01*
X92025000Y-163612500D01*
G75*
G02*
X92087500Y-163550000I62500J0D01*
G01*
X92212500Y-163550000D01*
G75*
G02*
X92275000Y-163612500I0J-62500D01*
G01*
G37*
G36*
G01*
X92775000Y-163612500D02*
X92775000Y-164287500D01*
G75*
G02*
X92712500Y-164350000I-62500J0D01*
G01*
X92587500Y-164350000D01*
G75*
G02*
X92525000Y-164287500I0J62500D01*
G01*
X92525000Y-163612500D01*
G75*
G02*
X92587500Y-163550000I62500J0D01*
G01*
X92712500Y-163550000D01*
G75*
G02*
X92775000Y-163612500I0J-62500D01*
G01*
G37*
G36*
G01*
X107393750Y-165852500D02*
X108306250Y-165852500D01*
G75*
G02*
X108550000Y-166096250I0J-243750D01*
G01*
X108550000Y-166583750D01*
G75*
G02*
X108306250Y-166827500I-243750J0D01*
G01*
X107393750Y-166827500D01*
G75*
G02*
X107150000Y-166583750I0J243750D01*
G01*
X107150000Y-166096250D01*
G75*
G02*
X107393750Y-165852500I243750J0D01*
G01*
G37*
G36*
G01*
X107393750Y-167727500D02*
X108306250Y-167727500D01*
G75*
G02*
X108550000Y-167971250I0J-243750D01*
G01*
X108550000Y-168458750D01*
G75*
G02*
X108306250Y-168702500I-243750J0D01*
G01*
X107393750Y-168702500D01*
G75*
G02*
X107150000Y-168458750I0J243750D01*
G01*
X107150000Y-167971250D01*
G75*
G02*
X107393750Y-167727500I243750J0D01*
G01*
G37*
G36*
G01*
X101593750Y-165852500D02*
X102506250Y-165852500D01*
G75*
G02*
X102750000Y-166096250I0J-243750D01*
G01*
X102750000Y-166583750D01*
G75*
G02*
X102506250Y-166827500I-243750J0D01*
G01*
X101593750Y-166827500D01*
G75*
G02*
X101350000Y-166583750I0J243750D01*
G01*
X101350000Y-166096250D01*
G75*
G02*
X101593750Y-165852500I243750J0D01*
G01*
G37*
G36*
G01*
X101593750Y-167727500D02*
X102506250Y-167727500D01*
G75*
G02*
X102750000Y-167971250I0J-243750D01*
G01*
X102750000Y-168458750D01*
G75*
G02*
X102506250Y-168702500I-243750J0D01*
G01*
X101593750Y-168702500D01*
G75*
G02*
X101350000Y-168458750I0J243750D01*
G01*
X101350000Y-167971250D01*
G75*
G02*
X101593750Y-167727500I243750J0D01*
G01*
G37*
G36*
G01*
X108306250Y-155027500D02*
X107393750Y-155027500D01*
G75*
G02*
X107150000Y-154783750I0J243750D01*
G01*
X107150000Y-154296250D01*
G75*
G02*
X107393750Y-154052500I243750J0D01*
G01*
X108306250Y-154052500D01*
G75*
G02*
X108550000Y-154296250I0J-243750D01*
G01*
X108550000Y-154783750D01*
G75*
G02*
X108306250Y-155027500I-243750J0D01*
G01*
G37*
G36*
G01*
X108306250Y-153152500D02*
X107393750Y-153152500D01*
G75*
G02*
X107150000Y-152908750I0J243750D01*
G01*
X107150000Y-152421250D01*
G75*
G02*
X107393750Y-152177500I243750J0D01*
G01*
X108306250Y-152177500D01*
G75*
G02*
X108550000Y-152421250I0J-243750D01*
G01*
X108550000Y-152908750D01*
G75*
G02*
X108306250Y-153152500I-243750J0D01*
G01*
G37*
G36*
G01*
X102506250Y-155027500D02*
X101593750Y-155027500D01*
G75*
G02*
X101350000Y-154783750I0J243750D01*
G01*
X101350000Y-154296250D01*
G75*
G02*
X101593750Y-154052500I243750J0D01*
G01*
X102506250Y-154052500D01*
G75*
G02*
X102750000Y-154296250I0J-243750D01*
G01*
X102750000Y-154783750D01*
G75*
G02*
X102506250Y-155027500I-243750J0D01*
G01*
G37*
G36*
G01*
X102506250Y-153152500D02*
X101593750Y-153152500D01*
G75*
G02*
X101350000Y-152908750I0J243750D01*
G01*
X101350000Y-152421250D01*
G75*
G02*
X101593750Y-152177500I243750J0D01*
G01*
X102506250Y-152177500D01*
G75*
G02*
X102750000Y-152421250I0J-243750D01*
G01*
X102750000Y-152908750D01*
G75*
G02*
X102506250Y-153152500I-243750J0D01*
G01*
G37*
G36*
G01*
X116006250Y-163452500D02*
X115493750Y-163452500D01*
G75*
G02*
X115275000Y-163233750I0J218750D01*
G01*
X115275000Y-162796250D01*
G75*
G02*
X115493750Y-162577500I218750J0D01*
G01*
X116006250Y-162577500D01*
G75*
G02*
X116225000Y-162796250I0J-218750D01*
G01*
X116225000Y-163233750D01*
G75*
G02*
X116006250Y-163452500I-218750J0D01*
G01*
G37*
G36*
G01*
X116006250Y-161877500D02*
X115493750Y-161877500D01*
G75*
G02*
X115275000Y-161658750I0J218750D01*
G01*
X115275000Y-161221250D01*
G75*
G02*
X115493750Y-161002500I218750J0D01*
G01*
X116006250Y-161002500D01*
G75*
G02*
X116225000Y-161221250I0J-218750D01*
G01*
X116225000Y-161658750D01*
G75*
G02*
X116006250Y-161877500I-218750J0D01*
G01*
G37*
G36*
G01*
X87756250Y-155087500D02*
X86843750Y-155087500D01*
G75*
G02*
X86600000Y-154843750I0J243750D01*
G01*
X86600000Y-154356250D01*
G75*
G02*
X86843750Y-154112500I243750J0D01*
G01*
X87756250Y-154112500D01*
G75*
G02*
X88000000Y-154356250I0J-243750D01*
G01*
X88000000Y-154843750D01*
G75*
G02*
X87756250Y-155087500I-243750J0D01*
G01*
G37*
G36*
G01*
X87756250Y-153212500D02*
X86843750Y-153212500D01*
G75*
G02*
X86600000Y-152968750I0J243750D01*
G01*
X86600000Y-152481250D01*
G75*
G02*
X86843750Y-152237500I243750J0D01*
G01*
X87756250Y-152237500D01*
G75*
G02*
X88000000Y-152481250I0J-243750D01*
G01*
X88000000Y-152968750D01*
G75*
G02*
X87756250Y-153212500I-243750J0D01*
G01*
G37*
G36*
G01*
X93556250Y-155087500D02*
X92643750Y-155087500D01*
G75*
G02*
X92400000Y-154843750I0J243750D01*
G01*
X92400000Y-154356250D01*
G75*
G02*
X92643750Y-154112500I243750J0D01*
G01*
X93556250Y-154112500D01*
G75*
G02*
X93800000Y-154356250I0J-243750D01*
G01*
X93800000Y-154843750D01*
G75*
G02*
X93556250Y-155087500I-243750J0D01*
G01*
G37*
G36*
G01*
X93556250Y-153212500D02*
X92643750Y-153212500D01*
G75*
G02*
X92400000Y-152968750I0J243750D01*
G01*
X92400000Y-152481250D01*
G75*
G02*
X92643750Y-152237500I243750J0D01*
G01*
X93556250Y-152237500D01*
G75*
G02*
X93800000Y-152481250I0J-243750D01*
G01*
X93800000Y-152968750D01*
G75*
G02*
X93556250Y-153212500I-243750J0D01*
G01*
G37*
G36*
G01*
X86843750Y-165912500D02*
X87756250Y-165912500D01*
G75*
G02*
X88000000Y-166156250I0J-243750D01*
G01*
X88000000Y-166643750D01*
G75*
G02*
X87756250Y-166887500I-243750J0D01*
G01*
X86843750Y-166887500D01*
G75*
G02*
X86600000Y-166643750I0J243750D01*
G01*
X86600000Y-166156250D01*
G75*
G02*
X86843750Y-165912500I243750J0D01*
G01*
G37*
G36*
G01*
X86843750Y-167787500D02*
X87756250Y-167787500D01*
G75*
G02*
X88000000Y-168031250I0J-243750D01*
G01*
X88000000Y-168518750D01*
G75*
G02*
X87756250Y-168762500I-243750J0D01*
G01*
X86843750Y-168762500D01*
G75*
G02*
X86600000Y-168518750I0J243750D01*
G01*
X86600000Y-168031250D01*
G75*
G02*
X86843750Y-167787500I243750J0D01*
G01*
G37*
G36*
G01*
X92643750Y-165912500D02*
X93556250Y-165912500D01*
G75*
G02*
X93800000Y-166156250I0J-243750D01*
G01*
X93800000Y-166643750D01*
G75*
G02*
X93556250Y-166887500I-243750J0D01*
G01*
X92643750Y-166887500D01*
G75*
G02*
X92400000Y-166643750I0J243750D01*
G01*
X92400000Y-166156250D01*
G75*
G02*
X92643750Y-165912500I243750J0D01*
G01*
G37*
G36*
G01*
X92643750Y-167787500D02*
X93556250Y-167787500D01*
G75*
G02*
X93800000Y-168031250I0J-243750D01*
G01*
X93800000Y-168518750D01*
G75*
G02*
X93556250Y-168762500I-243750J0D01*
G01*
X92643750Y-168762500D01*
G75*
G02*
X92400000Y-168518750I0J243750D01*
G01*
X92400000Y-168031250D01*
G75*
G02*
X92643750Y-167787500I243750J0D01*
G01*
G37*
G36*
G01*
X79143750Y-157487500D02*
X79656250Y-157487500D01*
G75*
G02*
X79875000Y-157706250I0J-218750D01*
G01*
X79875000Y-158143750D01*
G75*
G02*
X79656250Y-158362500I-218750J0D01*
G01*
X79143750Y-158362500D01*
G75*
G02*
X78925000Y-158143750I0J218750D01*
G01*
X78925000Y-157706250D01*
G75*
G02*
X79143750Y-157487500I218750J0D01*
G01*
G37*
G36*
G01*
X79143750Y-159062500D02*
X79656250Y-159062500D01*
G75*
G02*
X79875000Y-159281250I0J-218750D01*
G01*
X79875000Y-159718750D01*
G75*
G02*
X79656250Y-159937500I-218750J0D01*
G01*
X79143750Y-159937500D01*
G75*
G02*
X78925000Y-159718750I0J218750D01*
G01*
X78925000Y-159281250D01*
G75*
G02*
X79143750Y-159062500I218750J0D01*
G01*
G37*
G36*
G01*
X100406250Y-162377500D02*
X99893750Y-162377500D01*
G75*
G02*
X99675000Y-162158750I0J218750D01*
G01*
X99675000Y-161721250D01*
G75*
G02*
X99893750Y-161502500I218750J0D01*
G01*
X100406250Y-161502500D01*
G75*
G02*
X100625000Y-161721250I0J-218750D01*
G01*
X100625000Y-162158750D01*
G75*
G02*
X100406250Y-162377500I-218750J0D01*
G01*
G37*
G36*
G01*
X100406250Y-160802500D02*
X99893750Y-160802500D01*
G75*
G02*
X99675000Y-160583750I0J218750D01*
G01*
X99675000Y-160146250D01*
G75*
G02*
X99893750Y-159927500I218750J0D01*
G01*
X100406250Y-159927500D01*
G75*
G02*
X100625000Y-160146250I0J-218750D01*
G01*
X100625000Y-160583750D01*
G75*
G02*
X100406250Y-160802500I-218750J0D01*
G01*
G37*
G36*
G01*
X114900000Y-156590000D02*
X113800000Y-156590000D01*
G75*
G02*
X113550000Y-156340000I0J250000D01*
G01*
X113550000Y-153340000D01*
G75*
G02*
X113800000Y-153090000I250000J0D01*
G01*
X114900000Y-153090000D01*
G75*
G02*
X115150000Y-153340000I0J-250000D01*
G01*
X115150000Y-156340000D01*
G75*
G02*
X114900000Y-156590000I-250000J0D01*
G01*
G37*
G36*
G01*
X114900000Y-151190000D02*
X113800000Y-151190000D01*
G75*
G02*
X113550000Y-150940000I0J250000D01*
G01*
X113550000Y-147940000D01*
G75*
G02*
X113800000Y-147690000I250000J0D01*
G01*
X114900000Y-147690000D01*
G75*
G02*
X115150000Y-147940000I0J-250000D01*
G01*
X115150000Y-150940000D01*
G75*
G02*
X114900000Y-151190000I-250000J0D01*
G01*
G37*
G36*
G01*
X104693750Y-151915000D02*
X105206250Y-151915000D01*
G75*
G02*
X105425000Y-152133750I0J-218750D01*
G01*
X105425000Y-152571250D01*
G75*
G02*
X105206250Y-152790000I-218750J0D01*
G01*
X104693750Y-152790000D01*
G75*
G02*
X104475000Y-152571250I0J218750D01*
G01*
X104475000Y-152133750D01*
G75*
G02*
X104693750Y-151915000I218750J0D01*
G01*
G37*
G36*
G01*
X104693750Y-153490000D02*
X105206250Y-153490000D01*
G75*
G02*
X105425000Y-153708750I0J-218750D01*
G01*
X105425000Y-154146250D01*
G75*
G02*
X105206250Y-154365000I-218750J0D01*
G01*
X104693750Y-154365000D01*
G75*
G02*
X104475000Y-154146250I0J218750D01*
G01*
X104475000Y-153708750D01*
G75*
G02*
X104693750Y-153490000I218750J0D01*
G01*
G37*
G36*
G01*
X105206250Y-169065000D02*
X104693750Y-169065000D01*
G75*
G02*
X104475000Y-168846250I0J218750D01*
G01*
X104475000Y-168408750D01*
G75*
G02*
X104693750Y-168190000I218750J0D01*
G01*
X105206250Y-168190000D01*
G75*
G02*
X105425000Y-168408750I0J-218750D01*
G01*
X105425000Y-168846250D01*
G75*
G02*
X105206250Y-169065000I-218750J0D01*
G01*
G37*
G36*
G01*
X105206250Y-167490000D02*
X104693750Y-167490000D01*
G75*
G02*
X104475000Y-167271250I0J218750D01*
G01*
X104475000Y-166833750D01*
G75*
G02*
X104693750Y-166615000I218750J0D01*
G01*
X105206250Y-166615000D01*
G75*
G02*
X105425000Y-166833750I0J-218750D01*
G01*
X105425000Y-167271250D01*
G75*
G02*
X105206250Y-167490000I-218750J0D01*
G01*
G37*
G36*
G01*
X111893750Y-157327500D02*
X112406250Y-157327500D01*
G75*
G02*
X112625000Y-157546250I0J-218750D01*
G01*
X112625000Y-157983750D01*
G75*
G02*
X112406250Y-158202500I-218750J0D01*
G01*
X111893750Y-158202500D01*
G75*
G02*
X111675000Y-157983750I0J218750D01*
G01*
X111675000Y-157546250D01*
G75*
G02*
X111893750Y-157327500I218750J0D01*
G01*
G37*
G36*
G01*
X111893750Y-158902500D02*
X112406250Y-158902500D01*
G75*
G02*
X112625000Y-159121250I0J-218750D01*
G01*
X112625000Y-159558750D01*
G75*
G02*
X112406250Y-159777500I-218750J0D01*
G01*
X111893750Y-159777500D01*
G75*
G02*
X111675000Y-159558750I0J218750D01*
G01*
X111675000Y-159121250D01*
G75*
G02*
X111893750Y-158902500I218750J0D01*
G01*
G37*
G36*
G01*
X113212500Y-159596250D02*
X113212500Y-159083750D01*
G75*
G02*
X113431250Y-158865000I218750J0D01*
G01*
X113868750Y-158865000D01*
G75*
G02*
X114087500Y-159083750I0J-218750D01*
G01*
X114087500Y-159596250D01*
G75*
G02*
X113868750Y-159815000I-218750J0D01*
G01*
X113431250Y-159815000D01*
G75*
G02*
X113212500Y-159596250I0J218750D01*
G01*
G37*
G36*
G01*
X114787500Y-159596250D02*
X114787500Y-159083750D01*
G75*
G02*
X115006250Y-158865000I218750J0D01*
G01*
X115443750Y-158865000D01*
G75*
G02*
X115662500Y-159083750I0J-218750D01*
G01*
X115662500Y-159596250D01*
G75*
G02*
X115443750Y-159815000I-218750J0D01*
G01*
X115006250Y-159815000D01*
G75*
G02*
X114787500Y-159596250I0J218750D01*
G01*
G37*
G36*
G01*
X114375000Y-165065000D02*
X113125000Y-165065000D01*
G75*
G02*
X112875000Y-164815000I0J250000D01*
G01*
X112875000Y-164065000D01*
G75*
G02*
X113125000Y-163815000I250000J0D01*
G01*
X114375000Y-163815000D01*
G75*
G02*
X114625000Y-164065000I0J-250000D01*
G01*
X114625000Y-164815000D01*
G75*
G02*
X114375000Y-165065000I-250000J0D01*
G01*
G37*
G36*
G01*
X114375000Y-162265000D02*
X113125000Y-162265000D01*
G75*
G02*
X112875000Y-162015000I0J250000D01*
G01*
X112875000Y-161265000D01*
G75*
G02*
X113125000Y-161015000I250000J0D01*
G01*
X114375000Y-161015000D01*
G75*
G02*
X114625000Y-161265000I0J-250000D01*
G01*
X114625000Y-162015000D01*
G75*
G02*
X114375000Y-162265000I-250000J0D01*
G01*
G37*
G36*
G01*
X115675000Y-157483750D02*
X115675000Y-157996250D01*
G75*
G02*
X115456250Y-158215000I-218750J0D01*
G01*
X115018750Y-158215000D01*
G75*
G02*
X114800000Y-157996250I0J218750D01*
G01*
X114800000Y-157483750D01*
G75*
G02*
X115018750Y-157265000I218750J0D01*
G01*
X115456250Y-157265000D01*
G75*
G02*
X115675000Y-157483750I0J-218750D01*
G01*
G37*
G36*
G01*
X114100000Y-157483750D02*
X114100000Y-157996250D01*
G75*
G02*
X113881250Y-158215000I-218750J0D01*
G01*
X113443750Y-158215000D01*
G75*
G02*
X113225000Y-157996250I0J218750D01*
G01*
X113225000Y-157483750D01*
G75*
G02*
X113443750Y-157265000I218750J0D01*
G01*
X113881250Y-157265000D01*
G75*
G02*
X114100000Y-157483750I0J-218750D01*
G01*
G37*
G36*
G01*
X112006250Y-163477500D02*
X111493750Y-163477500D01*
G75*
G02*
X111275000Y-163258750I0J218750D01*
G01*
X111275000Y-162821250D01*
G75*
G02*
X111493750Y-162602500I218750J0D01*
G01*
X112006250Y-162602500D01*
G75*
G02*
X112225000Y-162821250I0J-218750D01*
G01*
X112225000Y-163258750D01*
G75*
G02*
X112006250Y-163477500I-218750J0D01*
G01*
G37*
G36*
G01*
X112006250Y-161902500D02*
X111493750Y-161902500D01*
G75*
G02*
X111275000Y-161683750I0J218750D01*
G01*
X111275000Y-161246250D01*
G75*
G02*
X111493750Y-161027500I218750J0D01*
G01*
X112006250Y-161027500D01*
G75*
G02*
X112225000Y-161246250I0J-218750D01*
G01*
X112225000Y-161683750D01*
G75*
G02*
X112006250Y-161902500I-218750J0D01*
G01*
G37*
G36*
G01*
X94743750Y-158562500D02*
X95256250Y-158562500D01*
G75*
G02*
X95475000Y-158781250I0J-218750D01*
G01*
X95475000Y-159218750D01*
G75*
G02*
X95256250Y-159437500I-218750J0D01*
G01*
X94743750Y-159437500D01*
G75*
G02*
X94525000Y-159218750I0J218750D01*
G01*
X94525000Y-158781250D01*
G75*
G02*
X94743750Y-158562500I218750J0D01*
G01*
G37*
G36*
G01*
X94743750Y-160137500D02*
X95256250Y-160137500D01*
G75*
G02*
X95475000Y-160356250I0J-218750D01*
G01*
X95475000Y-160793750D01*
G75*
G02*
X95256250Y-161012500I-218750J0D01*
G01*
X94743750Y-161012500D01*
G75*
G02*
X94525000Y-160793750I0J218750D01*
G01*
X94525000Y-160356250D01*
G75*
G02*
X94743750Y-160137500I218750J0D01*
G01*
G37*
G36*
G01*
X80250000Y-164350000D02*
X81350000Y-164350000D01*
G75*
G02*
X81600000Y-164600000I0J-250000D01*
G01*
X81600000Y-167600000D01*
G75*
G02*
X81350000Y-167850000I-250000J0D01*
G01*
X80250000Y-167850000D01*
G75*
G02*
X80000000Y-167600000I0J250000D01*
G01*
X80000000Y-164600000D01*
G75*
G02*
X80250000Y-164350000I250000J0D01*
G01*
G37*
G36*
G01*
X80250000Y-169750000D02*
X81350000Y-169750000D01*
G75*
G02*
X81600000Y-170000000I0J-250000D01*
G01*
X81600000Y-173000000D01*
G75*
G02*
X81350000Y-173250000I-250000J0D01*
G01*
X80250000Y-173250000D01*
G75*
G02*
X80000000Y-173000000I0J250000D01*
G01*
X80000000Y-170000000D01*
G75*
G02*
X80250000Y-169750000I250000J0D01*
G01*
G37*
G36*
G01*
X90456250Y-169025000D02*
X89943750Y-169025000D01*
G75*
G02*
X89725000Y-168806250I0J218750D01*
G01*
X89725000Y-168368750D01*
G75*
G02*
X89943750Y-168150000I218750J0D01*
G01*
X90456250Y-168150000D01*
G75*
G02*
X90675000Y-168368750I0J-218750D01*
G01*
X90675000Y-168806250D01*
G75*
G02*
X90456250Y-169025000I-218750J0D01*
G01*
G37*
G36*
G01*
X90456250Y-167450000D02*
X89943750Y-167450000D01*
G75*
G02*
X89725000Y-167231250I0J218750D01*
G01*
X89725000Y-166793750D01*
G75*
G02*
X89943750Y-166575000I218750J0D01*
G01*
X90456250Y-166575000D01*
G75*
G02*
X90675000Y-166793750I0J-218750D01*
G01*
X90675000Y-167231250D01*
G75*
G02*
X90456250Y-167450000I-218750J0D01*
G01*
G37*
G36*
G01*
X89943750Y-151875000D02*
X90456250Y-151875000D01*
G75*
G02*
X90675000Y-152093750I0J-218750D01*
G01*
X90675000Y-152531250D01*
G75*
G02*
X90456250Y-152750000I-218750J0D01*
G01*
X89943750Y-152750000D01*
G75*
G02*
X89725000Y-152531250I0J218750D01*
G01*
X89725000Y-152093750D01*
G75*
G02*
X89943750Y-151875000I218750J0D01*
G01*
G37*
G36*
G01*
X89943750Y-153450000D02*
X90456250Y-153450000D01*
G75*
G02*
X90675000Y-153668750I0J-218750D01*
G01*
X90675000Y-154106250D01*
G75*
G02*
X90456250Y-154325000I-218750J0D01*
G01*
X89943750Y-154325000D01*
G75*
G02*
X89725000Y-154106250I0J218750D01*
G01*
X89725000Y-153668750D01*
G75*
G02*
X89943750Y-153450000I218750J0D01*
G01*
G37*
G36*
G01*
X83256250Y-163612500D02*
X82743750Y-163612500D01*
G75*
G02*
X82525000Y-163393750I0J218750D01*
G01*
X82525000Y-162956250D01*
G75*
G02*
X82743750Y-162737500I218750J0D01*
G01*
X83256250Y-162737500D01*
G75*
G02*
X83475000Y-162956250I0J-218750D01*
G01*
X83475000Y-163393750D01*
G75*
G02*
X83256250Y-163612500I-218750J0D01*
G01*
G37*
G36*
G01*
X83256250Y-162037500D02*
X82743750Y-162037500D01*
G75*
G02*
X82525000Y-161818750I0J218750D01*
G01*
X82525000Y-161381250D01*
G75*
G02*
X82743750Y-161162500I218750J0D01*
G01*
X83256250Y-161162500D01*
G75*
G02*
X83475000Y-161381250I0J-218750D01*
G01*
X83475000Y-161818750D01*
G75*
G02*
X83256250Y-162037500I-218750J0D01*
G01*
G37*
G36*
G01*
X81937500Y-161343750D02*
X81937500Y-161856250D01*
G75*
G02*
X81718750Y-162075000I-218750J0D01*
G01*
X81281250Y-162075000D01*
G75*
G02*
X81062500Y-161856250I0J218750D01*
G01*
X81062500Y-161343750D01*
G75*
G02*
X81281250Y-161125000I218750J0D01*
G01*
X81718750Y-161125000D01*
G75*
G02*
X81937500Y-161343750I0J-218750D01*
G01*
G37*
G36*
G01*
X80362500Y-161343750D02*
X80362500Y-161856250D01*
G75*
G02*
X80143750Y-162075000I-218750J0D01*
G01*
X79706250Y-162075000D01*
G75*
G02*
X79487500Y-161856250I0J218750D01*
G01*
X79487500Y-161343750D01*
G75*
G02*
X79706250Y-161125000I218750J0D01*
G01*
X80143750Y-161125000D01*
G75*
G02*
X80362500Y-161343750I0J-218750D01*
G01*
G37*
G36*
G01*
X80775000Y-155875000D02*
X82025000Y-155875000D01*
G75*
G02*
X82275000Y-156125000I0J-250000D01*
G01*
X82275000Y-156875000D01*
G75*
G02*
X82025000Y-157125000I-250000J0D01*
G01*
X80775000Y-157125000D01*
G75*
G02*
X80525000Y-156875000I0J250000D01*
G01*
X80525000Y-156125000D01*
G75*
G02*
X80775000Y-155875000I250000J0D01*
G01*
G37*
G36*
G01*
X80775000Y-158675000D02*
X82025000Y-158675000D01*
G75*
G02*
X82275000Y-158925000I0J-250000D01*
G01*
X82275000Y-159675000D01*
G75*
G02*
X82025000Y-159925000I-250000J0D01*
G01*
X80775000Y-159925000D01*
G75*
G02*
X80525000Y-159675000I0J250000D01*
G01*
X80525000Y-158925000D01*
G75*
G02*
X80775000Y-158675000I250000J0D01*
G01*
G37*
G36*
G01*
X79475000Y-163456250D02*
X79475000Y-162943750D01*
G75*
G02*
X79693750Y-162725000I218750J0D01*
G01*
X80131250Y-162725000D01*
G75*
G02*
X80350000Y-162943750I0J-218750D01*
G01*
X80350000Y-163456250D01*
G75*
G02*
X80131250Y-163675000I-218750J0D01*
G01*
X79693750Y-163675000D01*
G75*
G02*
X79475000Y-163456250I0J218750D01*
G01*
G37*
G36*
G01*
X81050000Y-163456250D02*
X81050000Y-162943750D01*
G75*
G02*
X81268750Y-162725000I218750J0D01*
G01*
X81706250Y-162725000D01*
G75*
G02*
X81925000Y-162943750I0J-218750D01*
G01*
X81925000Y-163456250D01*
G75*
G02*
X81706250Y-163675000I-218750J0D01*
G01*
X81268750Y-163675000D01*
G75*
G02*
X81050000Y-163456250I0J218750D01*
G01*
G37*
G36*
G01*
X83143750Y-157462500D02*
X83656250Y-157462500D01*
G75*
G02*
X83875000Y-157681250I0J-218750D01*
G01*
X83875000Y-158118750D01*
G75*
G02*
X83656250Y-158337500I-218750J0D01*
G01*
X83143750Y-158337500D01*
G75*
G02*
X82925000Y-158118750I0J218750D01*
G01*
X82925000Y-157681250D01*
G75*
G02*
X83143750Y-157462500I218750J0D01*
G01*
G37*
G36*
G01*
X83143750Y-159037500D02*
X83656250Y-159037500D01*
G75*
G02*
X83875000Y-159256250I0J-218750D01*
G01*
X83875000Y-159693750D01*
G75*
G02*
X83656250Y-159912500I-218750J0D01*
G01*
X83143750Y-159912500D01*
G75*
G02*
X82925000Y-159693750I0J218750D01*
G01*
X82925000Y-159256250D01*
G75*
G02*
X83143750Y-159037500I218750J0D01*
G01*
G37*
G36*
G01*
X72550000Y-169850000D02*
X73650000Y-169850000D01*
G75*
G02*
X73900000Y-170100000I0J-250000D01*
G01*
X73900000Y-173100000D01*
G75*
G02*
X73650000Y-173350000I-250000J0D01*
G01*
X72550000Y-173350000D01*
G75*
G02*
X72300000Y-173100000I0J250000D01*
G01*
X72300000Y-170100000D01*
G75*
G02*
X72550000Y-169850000I250000J0D01*
G01*
G37*
G36*
G01*
X72550000Y-164450000D02*
X73650000Y-164450000D01*
G75*
G02*
X73900000Y-164700000I0J-250000D01*
G01*
X73900000Y-167700000D01*
G75*
G02*
X73650000Y-167950000I-250000J0D01*
G01*
X72550000Y-167950000D01*
G75*
G02*
X72300000Y-167700000I0J250000D01*
G01*
X72300000Y-164700000D01*
G75*
G02*
X72550000Y-164450000I250000J0D01*
G01*
G37*
M02*
